<?xml version="1.0" encoding="UTF-8"?>
<svg version="1.1" xmlns="http://www.w3.org/2000/svg" width="1920" height="480">
<path d="M0 0 C633.6 0 1267.2 0 1920 0 C1920 158.4 1920 316.8 1920 480 C1286.4 480 652.8 480 0 480 C0 321.6 0 163.2 0 0 Z " fill="#FEFEFE" transform="translate(0,0)"/>
<path d="M0 0 C2.95594671 0.72054747 4.10951986 2.17823459 6.03515625 4.49609375 C6.84504715 8.27051896 6.63820056 12.08188435 6.59765625 15.93359375 C6.62150391 16.97064453 6.64535156 18.00769531 6.66992188 19.07617188 C6.65534083 26.64373214 6.65534083 26.64373214 3.71875 30.6796875 C0.15564766 33.09139432 -1.74452863 33.24972145 -5.96484375 32.49609375 C-8.90234375 30.12109375 -8.90234375 30.12109375 -10.96484375 27.49609375 C-10.96484375 26.83609375 -10.96484375 26.17609375 -10.96484375 25.49609375 C-12.07281502 25.49687365 -13.1807863 25.49765356 -14.32233246 25.49845709 C-52.25687982 25.52512118 -90.19142791 25.55067417 -128.12597656 25.57543945 C-128.8901581 25.57593844 -129.65433964 25.57643743 -130.44167819 25.57695154 C-212.30484449 25.63037508 -294.16801103 25.67649401 -376.03118896 25.70780945 C-377.84905019 25.7085067 -379.66691142 25.70920396 -381.48477264 25.70990122 C-419.63996069 25.72451382 -457.79514904 25.73809749 -495.95033787 25.75049214 C-515.11620652 25.75671924 -534.2820751 25.76314411 -553.44794363 25.76975596 C-556.33908981 25.7707522 -559.230236 25.77174279 -562.12138219 25.77273315 C-606.65475875 25.78803779 -651.18812848 25.80759074 -695.72149658 25.8394165 C-696.67941413 25.840101 -697.63733168 25.84078549 -698.62427704 25.84149073 C-714.06929833 25.85255294 -729.51431935 25.86397085 -744.95934035 25.87543595 C-789.431595 25.90844303 -833.90384441 25.93883136 -878.37611008 25.95179272 C-879.29014321 25.95206039 -880.20417634 25.95232807 -881.14590745 25.95260385 C-901.2084407 25.95843191 -921.27097402 25.96290653 -941.33350786 25.96609866 C-949.40530928 25.96740682 -957.47711067 25.96890992 -965.54891205 25.97047997 C-966.43234987 25.9706471 -967.31578769 25.97081424 -968.22599636 25.97098644 C-996.71693683 25.97647364 -1025.20783836 25.99784582 -1053.6987631 26.02750479 C-1082.38560792 26.05729529 -1111.07241491 26.07159918 -1139.75927559 26.06421369 C-1143.7187736 26.06319821 -1147.67827163 26.06236133 -1151.6377697 26.06163216 C-1152.41397988 26.06148275 -1153.19019006 26.06133335 -1153.98992176 26.06117942 C-1166.30682565 26.05927226 -1178.62364979 26.07423255 -1190.94053192 26.09614306 C-1203.03641346 26.11731671 -1215.13219109 26.12083202 -1227.22808237 26.10525282 C-1233.70515345 26.09765894 -1240.18195656 26.09821002 -1246.65899959 26.12050966 C-1252.54091908 26.14060784 -1258.42235923 26.13807619 -1264.30427057 26.11679363 C-1266.42896647 26.11319598 -1268.55369664 26.11814393 -1270.67834862 26.13226997 C-1273.54612564 26.15014133 -1276.41216821 26.13763343 -1279.27988839 26.11708623 C-1280.11171932 26.12963062 -1280.94355025 26.142175 -1281.80058818 26.15509952 C-1285.71350055 26.0946123 -1287.55186865 25.87817519 -1290.47249721 23.17603172 C-1292.45745611 19.6114664 -1292.61120671 17.51790769 -1291.96484375 13.49609375 C-1289.99503092 10.83663965 -1288.40965274 8.84772118 -1285.08776787 8.03926425 C-1282.76545173 7.85537385 -1280.49155494 7.83983776 -1278.16210192 7.87510127 C-1277.26962223 7.86871084 -1276.37714254 7.86232041 -1275.457618 7.85573633 C-1272.44524677 7.84033423 -1269.43416869 7.86078423 -1266.42183971 7.88085461 C-1264.23988148 7.87715836 -1262.05792605 7.87126752 -1259.87597898 7.86337212 C-1253.84086439 7.84796393 -1247.80616804 7.86395408 -1241.77108448 7.88476279 C-1235.89530174 7.90011602 -1230.01958309 7.8919168 -1224.14379208 7.88434496 C-1211.97508006 7.86950291 -1199.80648779 7.87839476 -1187.63779068 7.90006638 C-1175.30220096 7.92193859 -1162.96667316 7.93293143 -1150.63106346 7.93055534 C-1149.85263549 7.93041188 -1149.07420752 7.93026842 -1148.27219082 7.93012061 C-1144.30315269 7.92933876 -1140.33411462 7.92837902 -1136.36507655 7.92735643 C-1107.61875898 7.92031437 -1078.87249655 7.93748894 -1050.12619591 7.96744347 C-1021.65286677 7.99704274 -993.17956124 8.01631629 -964.70621681 8.02170753 C-963.82236728 8.02187959 -962.93851774 8.02205165 -962.02788489 8.02222893 C-953.95543425 8.0237949 -945.88298359 8.02523335 -937.8105329 8.0265188 C-917.74216412 8.02971603 -897.6737959 8.03451279 -877.60542774 8.04039478 C-876.69149788 8.04066137 -875.77756803 8.04092796 -874.83594332 8.04120262 C-830.36449694 8.05431432 -785.89306615 8.08585379 -741.42163086 8.11889648 C-725.98655204 8.13035465 -710.55147317 8.14173141 -695.11639404 8.152771 C-693.68049163 8.15379811 -693.68049163 8.15379811 -692.21558109 8.15484598 C-647.72533275 8.18655882 -603.23508174 8.20519189 -558.74482506 8.22044497 C-555.85694264 8.22143529 -552.96906022 8.22243126 -550.0811778 8.22342837 C-530.94323766 8.2300272 -511.80529745 8.23640046 -492.66735719 8.24262266 C-454.58670005 8.25500559 -416.50604342 8.26871402 -378.42538707 8.2833329 C-376.611834 8.2840291 -374.79828093 8.28472437 -372.98472786 8.28541871 C-291.32924771 8.31668929 -209.673779 8.36338061 -128.01831055 8.41674805 C-127.25362351 8.41724772 -126.48893647 8.4177474 -125.70107709 8.41826222 C-87.45566533 8.44326519 -49.21025419 8.46914783 -10.96484375 8.49609375 C-10.65804688 7.70847656 -10.35125 6.92085937 -10.03515625 6.109375 C-7.83338707 0.73352251 -5.86288266 0.16944748 0 0 Z " fill="#010828" transform="translate(1451.96484375,142.50390625)"/>
<path d="M0 0 C37.62358733 0.05908256 75.24711234 0.1333831 112.87062536 0.22898628 C117.31047847 0.24025471 121.7503319 0.25139312 126.19018555 0.26245117 C127.07409597 0.26465486 127.95800639 0.26685854 128.86870197 0.269129 C143.18867108 0.30452003 157.50864013 0.32937396 171.82863679 0.35034702 C186.51772719 0.3720947 201.20676074 0.40513527 215.8958028 0.44870156 C224.96276923 0.4752361 234.02966481 0.49291818 243.09666816 0.49934604 C249.31074155 0.50459442 255.52472571 0.52079282 261.73875131 0.54566566 C265.32616132 0.55969961 268.9134115 0.56884445 272.50085068 0.56500816 C276.38782821 0.56097752 280.27449694 0.57997362 284.16142273 0.60127258 C285.29857922 0.59642501 286.43573571 0.59157743 287.60735148 0.58658296 C289.16891198 0.60076777 289.16891198 0.60076777 290.76201916 0.61523914 C291.6592983 0.61713775 292.55657744 0.61903635 293.48104686 0.62099248 C296.57325962 1.08625397 298.47177419 2.18910928 301 4 C302.55024464 7.10048928 302.28992015 9.57894218 302 13 C300.71760941 15.69288921 300.71760941 15.69288921 298 18 C294.07870918 18.76269428 290.18891028 18.65181187 286.20574951 18.60127258 C284.98543321 18.60554471 283.76511691 18.60981683 282.50782132 18.61421841 C279.11865219 18.6210387 275.7309219 18.60538475 272.34192657 18.58032811 C268.68824781 18.55875897 265.0346144 18.566041 261.38088989 18.56983948 C255.05005079 18.57246273 248.71946911 18.55675998 242.38869476 18.52865028 C233.23547522 18.48803489 224.08238029 18.4749951 214.9290804 18.46871033 C200.07895176 18.45776404 185.22896036 18.42448084 170.37890625 18.37719727 C155.95248095 18.33131028 141.52609291 18.29591417 127.09960938 18.2746582 C126.21053559 18.27334459 125.3214618 18.27203097 124.40544638 18.27067754 C119.94527592 18.26415241 115.48510519 18.25783386 111.02493429 18.25161803 C74.01652502 18.19977463 37.0082754 18.11132893 0 18 C0 12.06 0 6.12 0 0 Z " fill="#969AA1" transform="translate(1458,150)"/>
<path d="M0 0 C5.41856358 0.13893753 9.11655979 2.68631885 13.53515625 5.52734375 C15.91334958 7.0387536 15.91334958 7.0387536 18.33154297 7.91894531 C21.07236078 9.02931505 23.57556454 10.3344992 26.16015625 11.76953125 C27.12324707 12.30143066 28.08633789 12.83333008 29.07861328 13.38134766 C30.52469971 14.18258057 30.52469971 14.18258057 32 15 C33.72703669 15.94292418 35.45487811 16.88437621 37.18359375 17.82421875 C38.93491337 18.77861366 40.68621497 19.73304163 42.4375 20.6875 C43.37835449 21.20006348 44.31920898 21.71262695 45.28857422 22.24072266 C50.01590845 24.81833387 54.73836536 27.40409312 59.44921875 30.01171875 C61.17443443 30.9662267 62.89969367 31.92065592 64.625 32.875 C65.8622583 33.55985474 65.8622583 33.55985474 67.12451172 34.25854492 C72.60209168 37.27470881 78.12597788 40.11810724 83.78515625 42.78125 C86.03913948 44.02153707 87.54672959 44.86786625 89 47 C89.19921875 49.40234375 89.19921875 49.40234375 88 52 C85.46727761 53.90665618 82.66479453 55.19837142 79.8125 56.5625 C78.05890586 57.4420394 76.30633977 58.32363083 74.5546875 59.20703125 C73.17941895 59.89273193 73.17941895 59.89273193 71.77636719 60.59228516 C67.27360674 62.8753415 62.85887759 65.3140925 58.4375 67.75 C48.02718905 73.4518129 37.5882047 79.09896199 27.125 84.703125 C23.31530725 86.74521497 19.52340963 88.81354798 15.75 90.921875 C14.96923096 91.35218018 14.18846191 91.78248535 13.3840332 92.22583008 C11.96994111 93.00588332 10.56165349 93.79660215 9.16088867 94.6003418 C5.24047218 96.74271029 3.27387282 97.09200475 -1 96 C-1.02312154 83.63081285 -1.04091412 71.26163081 -1.05181217 58.89242649 C-1.05704141 53.14954938 -1.0641398 47.40668699 -1.07543945 41.66381836 C-1.08626687 36.12660005 -1.09227652 30.58939596 -1.09487724 25.05216789 C-1.09673176 22.93455723 -1.10035286 20.81694738 -1.10573006 18.69934273 C-1.11293856 15.74428726 -1.11399102 12.78929129 -1.11352539 9.83422852 C-1.11712067 8.94950363 -1.12071594 8.06477875 -1.12442017 7.15324402 C-1.11405216 1.11405216 -1.11405216 1.11405216 0 0 Z " fill="#02092A" transform="translate(939,282)"/>
<path d="M0 0 C-0.33 1.32 -0.66 2.64 -1 4 C-421.09 4 -841.18 4 -1274 4 C-1273.67 3.01 -1273.34 2.02 -1273 1 C-1234.11930339 0.96940071 -1195.23860677 0.93880178 -1156.35791016 0.90820312 C-1155.59712141 0.90760439 -1154.83633267 0.90700566 -1154.05248973 0.90638879 C-1072.55667081 0.84225253 -991.06085188 0.77811856 -909.56503296 0.71398926 C-907.75543669 0.71256528 -905.94584043 0.7111413 -904.13624416 0.70971733 C-866.15496711 0.67982974 -828.17369005 0.64994248 -790.19241299 0.62005559 C-771.1140511 0.60504312 -752.03568921 0.59003058 -732.95732731 0.57501799 C-730.07937198 0.57275335 -727.20141665 0.57048872 -724.32346132 0.56822408 C-679.99052288 0.5333389 -635.65758444 0.49845239 -591.324646 0.46356201 C-590.37095801 0.46281145 -589.41727002 0.46206089 -588.4346824 0.46128759 C-573.05774641 0.44918581 -557.68081043 0.43708392 -542.30387445 0.42498201 C-498.03048608 0.39013812 -453.75709771 0.35529505 -409.48370934 0.32045746 C-408.57386473 0.31974152 -407.66402013 0.31902559 -406.72660448 0.31828796 C-386.75655267 0.30257405 -366.78650086 0.28686056 -346.81644905 0.27114748 C-338.78199442 0.2648257 -330.7475398 0.25850387 -322.71308517 0.25218201 C-321.83373197 0.25149009 -320.95437876 0.25079818 -320.04837849 0.2500853 C-291.68385622 0.22776688 -263.31933395 0.20544346 -234.95481168 0.18311743 C-206.39791112 0.16063999 -177.84101055 0.13816743 -149.28410998 0.1157017 C-145.34355666 0.11260166 -141.40300335 0.10950157 -137.46245003 0.10640144 C-136.30369411 0.10548983 -136.30369411 0.10548983 -135.12152898 0.10455979 C-122.85791187 0.0949116 -110.59429477 0.08525809 -98.33067767 0.07560241 C-86.2904568 0.06612272 -74.25023593 0.05664857 -62.21001506 0.04718045 C-55.76145965 0.04210923 -49.31290424 0.03703544 -42.86434884 0.03195482 C-37.01071818 0.02734298 -31.1570875 0.02273822 -25.30345683 0.0181394 C-23.18670291 0.01647511 -21.069949 0.01480812 -18.9531951 0.01313826 C-16.10149213 0.01088898 -13.24978916 0.00864922 -10.39808619 0.00641203 C-9.56519303 0.00575278 -8.73229986 0.00509352 -7.87416751 0.00441429 C-2.22831003 0 -2.22831003 0 0 0 Z " fill="#E3E7EB" transform="translate(1442,147)"/>
<path d="M0 0 C1.65 0.33 3.3 0.66 5 1 C5 12.22 5 23.44 5 35 C8.63 33.02 12.26 31.04 16 29 C17.92983155 27.98768228 19.86355608 26.98266506 21.8046875 25.9921875 C23.28340332 25.23264771 23.28340332 25.23264771 24.79199219 24.45776367 C26.31808105 23.67429565 26.31808105 23.67429565 27.875 22.875 C37.21318993 18.07072122 46.37611569 13.04327715 55.36279297 7.60693359 C56.56766357 6.894646 56.56766357 6.894646 57.796875 6.16796875 C58.83859863 5.53797974 58.83859863 5.53797974 59.90136719 4.89526367 C62.41933268 3.82111529 64.28843804 3.76655236 67 4 C68 5 68 5 68.12025452 7.77772522 C68.11803391 9.01904709 68.11581329 10.26036896 68.11352539 11.53930664 C68.11367142 12.22220261 68.11381744 12.90509857 68.1139679 13.60868835 C68.11326876 15.87587614 68.1054764 18.14298274 68.09765625 20.41015625 C68.09579207 21.97814387 68.09436817 23.54613207 68.09336853 25.11412048 C68.08954334 29.24876503 68.07971306 33.38337466 68.06866455 37.51800537 C68.05845044 41.73400398 68.05387091 45.95000822 68.04882812 50.16601562 C68.03809079 58.44402647 68.02101436 66.7220089 68 75 C63.71628796 75.08550195 61.12388963 74.92736511 57.375 72.796875 C56.08396362 72.07685303 56.08396362 72.07685303 54.7668457 71.34228516 C53.85378662 70.81683105 52.94072754 70.29137695 52 69.75 C50.03535647 68.64808045 48.07050658 67.54652874 46.10546875 66.4453125 C45.09919434 65.87586914 44.09291992 65.30642578 43.05615234 64.71972656 C38.16960228 61.97001745 33.24009307 59.30022267 28.3125 56.625 C26.57920649 55.68009203 24.84612681 54.73479171 23.11328125 53.7890625 C22.28650879 53.33821289 21.45973633 52.88736328 20.60791016 52.42285156 C18.73219418 51.39947835 16.85692164 50.37529223 14.98193359 49.35058594 C13.4962085 48.53895996 13.4962085 48.53895996 11.98046875 47.7109375 C11.07578857 47.2164209 10.1711084 46.7219043 9.23901367 46.21240234 C7.83742748 45.45345817 6.42560587 44.71280293 5 44 C5 55.22 5 66.44 5 78 C2.525 78.495 2.525 78.495 0 79 C-2.42166978 76.57833022 -2.24151629 75.31858109 -2.27105713 72.01377869 C-2.26700867 71.32280594 -2.26296021 70.63183319 -2.25878906 69.91992188 C-2.2622937 69.19132462 -2.26579834 68.46272736 -2.26940918 67.71205139 C-2.27823008 65.2975214 -2.2723762 62.8832831 -2.265625 60.46875 C-2.26697155 58.79488061 -2.268912 57.1210116 -2.27142334 55.44714355 C-2.27437508 51.93656699 -2.27007538 48.4260921 -2.26074219 44.91552734 C-2.24934759 40.40926776 -2.25590679 35.90324639 -2.26788712 31.39699554 C-2.27510438 27.93982133 -2.27281841 24.48270385 -2.26763153 21.02552795 C-2.26629466 19.36369295 -2.26794405 17.70185285 -2.27259064 16.0400238 C-2.27765373 13.71990253 -2.26994898 11.40017033 -2.25878906 9.08007812 C-2.26283752 8.38910538 -2.26688599 7.69813263 -2.27105713 6.98622131 C-2.22852925 2.22852925 -2.22852925 2.22852925 0 0 Z " fill="#01092A" transform="translate(714,291)"/>
<path d="M0 0 C1.65611983 1.65611983 1.13164288 3.64855341 1.14663696 5.86180115 C1.14595718 6.90365318 1.14595718 6.90365318 1.14526367 7.96655273 C1.14862228 8.69500397 1.1519809 9.4234552 1.15544128 10.17398071 C1.1649786 12.59386884 1.16689578 15.01368798 1.16796875 17.43359375 C1.17117941 19.1088921 1.17454333 20.78419017 1.17805481 22.45948792 C1.18405305 25.97600963 1.185894 29.49250673 1.18530273 33.0090332 C1.18520107 37.52315104 1.19885411 42.03711172 1.21607494 46.55119228 C1.2271737 50.01264679 1.2292226 53.47406304 1.22869301 56.93553352 C1.22987631 58.60016484 1.23431755 60.26479704 1.24202538 61.92941093 C1.2517826 64.25440464 1.24896434 66.57905391 1.24291992 68.90405273 C1.24853943 69.59659653 1.25415894 70.28914032 1.25994873 71.00267029 C1.22831581 75.77168419 1.22831581 75.77168419 -1 78 C-2.65 77.67 -4.3 77.34 -6 77 C-6 65.78 -6 54.56 -6 43 C-20.80621793 50.92132659 -35.60955893 58.84430676 -50.35742188 66.8737793 C-52.14459809 67.84506392 -53.93380694 68.81262343 -55.72558594 69.77539062 C-57.60858927 70.78925331 -59.48147134 71.82188853 -61.3515625 72.859375 C-64 74 -64 74 -69 74 C-69 50.9 -69 27.8 -69 4 C-63.71338288 2.94267658 -63.28371639 2.92829607 -58.94921875 5.3671875 C-57.95519043 5.91552246 -56.96116211 6.46385742 -55.93701172 7.02880859 C-54.86467285 7.63805176 -53.79233398 8.24729492 -52.6875 8.875 C-50.97372901 9.82429108 -49.25992121 10.77351837 -47.5447998 11.72036743 C-46.3251745 12.39440017 -45.1065272 13.07020515 -43.88879395 13.74765015 C-36.11138682 18.06999869 -28.23925305 22.21354834 -20.375 26.375 C-13.259375 30.149375 -13.259375 30.149375 -6 34 C-6 22.78 -6 11.56 -6 0 C-3.49749232 -1.25125384 -2.59701335 -0.83774624 0 0 Z " fill="#060D2B" transform="translate(1216,292)"/>
<path d="M0 0 C0.33 0 0.66 0 1 0 C1 1.65 1 3.3 1 5 C-630.62 5.495 -630.62 5.495 -1275 6 C-1274.67 8.31 -1274.34 10.62 -1274 13 C-1274 15.33333333 -1274 17.66666667 -1274 20 C-1275.32 20.33 -1276.64 20.66 -1278 21 C-1280.76383547 18.14979467 -1281.92501775 16.46655624 -1282.5625 12.5 C-1281.83387548 7.96633631 -1280.61844908 6.78440605 -1277 4 C-1274.061242 3.28478579 -1271.21024104 3.33339666 -1268.19725817 3.37900752 C-1267.30477848 3.37261709 -1266.41229879 3.36622666 -1265.49277425 3.35964258 C-1262.48040302 3.34424048 -1259.46932494 3.36469048 -1256.45699596 3.38476086 C-1254.27503773 3.38106461 -1252.0930823 3.37517377 -1249.91113523 3.36727837 C-1243.87602064 3.35187018 -1237.84132429 3.36786033 -1231.80624073 3.38866904 C-1225.93045799 3.40402227 -1220.05473934 3.39582305 -1214.17894833 3.38825121 C-1202.01023631 3.37340916 -1189.84164404 3.38230101 -1177.67294693 3.40397263 C-1165.33735721 3.42584484 -1153.00182941 3.43683768 -1140.66621971 3.43446159 C-1139.88779174 3.43431813 -1139.10936377 3.43417467 -1138.30734707 3.43402686 C-1134.33830894 3.43324501 -1130.36927087 3.43228527 -1126.4002328 3.43126268 C-1097.65391523 3.42422062 -1068.9076528 3.44139519 -1040.16135216 3.47134972 C-1011.68802302 3.50094899 -983.21471749 3.52022254 -954.74137306 3.52561378 C-953.85752353 3.52578584 -952.97367399 3.5259579 -952.06304114 3.52613518 C-943.9905905 3.52770115 -935.91813984 3.5291396 -927.84568915 3.53042505 C-907.77732037 3.53362228 -887.70895215 3.53841904 -867.64058399 3.54430103 C-866.72665413 3.54456762 -865.81272428 3.54483421 -864.87109957 3.54510887 C-820.39965319 3.55822057 -775.9282224 3.58976004 -731.45678711 3.62280273 C-716.02170829 3.6342609 -700.58662942 3.64563766 -685.15155029 3.65667725 C-683.71564788 3.65770436 -683.71564788 3.65770436 -682.25073734 3.65875223 C-637.760489 3.69046507 -593.27023799 3.70909814 -548.77998131 3.72435122 C-545.89209889 3.72534154 -543.00421647 3.72633751 -540.11633405 3.72733462 C-520.97839391 3.73393345 -501.8404537 3.74030671 -482.70251344 3.74652891 C-444.6218563 3.75891184 -406.54119967 3.77262027 -368.46054332 3.78723915 C-366.64699025 3.78793535 -364.83343718 3.78863062 -363.01988411 3.78932496 C-281.36440396 3.82059554 -199.70893525 3.86728686 -118.0534668 3.9206543 C-117.28877976 3.92115397 -116.52409272 3.92165365 -115.73623334 3.92216847 C-77.49082158 3.94717144 -39.24541044 3.97305408 -1 4 C-0.67 2.68 -0.34 1.36 0 0 Z " fill="#0F1327" transform="translate(1442,147)"/>
<path d="M0 0 C2.31 0.33 4.62 0.66 7 1 C7 1.99 7 2.98 7 4 C7.66 2.68 8.32 1.36 9 0 C9.721875 0.144375 10.44375 0.28875 11.1875 0.4375 C12.115625 0.623125 13.04375 0.80875 14 1 C16.475 1.495 16.475 1.495 19 2 C19 6.29 19 10.58 19 15 C19.99 15 20.98 15 22 15 C22 16.32 22 17.64 22 19 C21.01 19 20.02 19 19 19 C19 20.65 19 22.3 19 24 C17.68 24 16.36 24 15 24 C15 22.68 15 21.36 15 20 C12.03 20 9.06 20 6 20 C6 20.66 6 21.32 6 22 C1.24241898 24.53737655 -3.74131644 24.72533566 -9 24 C-11.93423195 22.20353146 -13.47205355 21.0558929 -15 18 C-15.66 18 -16.32 18 -17 18 C-16.79375 18.78375 -16.5875 19.5675 -16.375 20.375 C-16.25125 21.24125 -16.1275 22.1075 -16 23 C-16.66 23.66 -17.32 24.32 -18 25 C-19.32 25 -20.64 25 -22 25 C-22 24.34 -22 23.68 -22 23 C-22.66 23 -23.32 23 -24 23 C-24.86354079 19.0748146 -25.15124583 16.51045466 -24 12.625 C-22 10 -22 10 -18.375 9.0625 C-16.704375 9.0315625 -16.704375 9.0315625 -15 9 C-14.67 9.33 -14.34 9.66 -14 10 C-13.82726562 9.43410156 -13.65453125 8.86820313 -13.4765625 8.28515625 C-12.5365652 5.83167705 -11.69773977 4.01766561 -10 2 C-6.65148121 0.98704682 -3.48211211 0.89367597 0 1 C0 0.67 0 0.34 0 0 Z " fill="#F5F5F4" transform="translate(218,208)"/>
<path d="M0 0 C1.21816406 0.03480469 1.21816406 0.03480469 2.4609375 0.0703125 C3.68683594 0.09738281 3.68683594 0.09738281 4.9375 0.125 C5.87722656 0.15980469 5.87722656 0.15980469 6.8359375 0.1953125 C6.8359375 0.5253125 6.8359375 0.8553125 6.8359375 1.1953125 C7.9290625 1.4634375 9.0221875 1.7315625 10.1484375 2.0078125 C15.36619687 3.68810789 15.36619687 3.68810789 16.8359375 6.1953125 C17.39639378 10.51883238 17.3145433 12.49236023 14.8359375 16.1328125 C14.1759375 16.8134375 13.5159375 17.4940625 12.8359375 18.1953125 C14.4859375 18.5253125 16.1359375 18.8553125 17.8359375 19.1953125 C17.8359375 20.8453125 17.8359375 22.4953125 17.8359375 24.1953125 C12.2259375 24.1953125 6.6159375 24.1953125 0.8359375 24.1953125 C1.1659375 23.2053125 1.4959375 22.2153125 1.8359375 21.1953125 C1.1759375 21.1953125 0.5159375 21.1953125 -0.1640625 21.1953125 C-0.4940625 22.1853125 -0.8240625 23.1753125 -1.1640625 24.1953125 C-1.7209375 24.01613281 -2.2778125 23.83695313 -2.8515625 23.65234375 C-5.52374119 23.12422735 -7.48577066 23.43779145 -10.1640625 23.8828125 C-14.82884364 24.43241852 -14.82884364 24.43241852 -17.7265625 22.3828125 C-20.7674394 17.75539113 -20.85527389 13.64172511 -20.1640625 8.1953125 C-18.97152983 4.94295068 -18.13446738 4.40855535 -15.1640625 2.1953125 C-12.23210071 1.88268257 -9.52749107 1.94117757 -6.58984375 2.1796875 C-5.38908203 2.18742188 -5.38908203 2.18742188 -4.1640625 2.1953125 C-2.1640625 0.1953125 -2.1640625 0.1953125 0 0 Z " fill="#F3F6F4" transform="translate(1690.1640625,207.8046875)"/>
<path d="M0 0 C1.65 0.33 3.3 0.66 5 1 C5 12.22 5 23.44 5 35 C7.97 33.35 10.94 31.7 14 30 C16 31 16 31 17 33 C16.34 33 15.68 33 15 33 C15 33.66 15 34.32 15 35 C13.02 35.66 11.04 36.32 9 37 C9 38.32 9 39.64 9 41 C13.03085561 44.25629124 13.03085561 44.25629124 18 45 C18 45.66 18 46.32 18 47 C18.66 47 19.32 47 20 47 C20.33 46.34 20.66 45.68 21 45 C21 45.99 21 46.98 21 48 C20.01 48.66 19.02 49.32 18 50 C14 49 14 49 5 44 C5 55.22 5 66.44 5 78 C2.525 78.495 2.525 78.495 0 79 C-2.42166978 76.57833022 -2.24151629 75.31858109 -2.27105713 72.01377869 C-2.26700867 71.32280594 -2.26296021 70.63183319 -2.25878906 69.91992188 C-2.2622937 69.19132462 -2.26579834 68.46272736 -2.26940918 67.71205139 C-2.27823008 65.2975214 -2.2723762 62.8832831 -2.265625 60.46875 C-2.26697155 58.79488061 -2.268912 57.1210116 -2.27142334 55.44714355 C-2.27437508 51.93656699 -2.27007538 48.4260921 -2.26074219 44.91552734 C-2.24934759 40.40926776 -2.25590679 35.90324639 -2.26788712 31.39699554 C-2.27510438 27.93982133 -2.27281841 24.48270385 -2.26763153 21.02552795 C-2.26629466 19.36369295 -2.26794405 17.70185285 -2.27259064 16.0400238 C-2.27765373 13.71990253 -2.26994898 11.40017033 -2.25878906 9.08007812 C-2.26283752 8.38910538 -2.26688599 7.69813263 -2.27105713 6.98622131 C-2.22852925 2.22852925 -2.22852925 2.22852925 0 0 Z " fill="#1B203A" transform="translate(714,291)"/>
<path d="M0 0 C1.39538254 -0.05472088 2.79140897 -0.09311538 4.1875 -0.125 C4.96480469 -0.14820313 5.74210937 -0.17140625 6.54296875 -0.1953125 C9 0 9 0 14 2 C14 9.26 14 16.52 14 24 C11.69 24 9.38 24 7 24 C6.67 22.02 6.34 20.04 6 18 C5.34 18.99 4.68 19.98 4 21 C2.35178756 22.03013277 0.68496298 23.03114628 -1 24 C-1.66 24.66 -2.32 25.32 -3 26 C-5.3125 26.4375 -5.3125 26.4375 -8 26 C-10.6875 23.625 -10.6875 23.625 -13 21 C-13.66 20.34 -14.32 19.68 -15 19 C-15.68643608 14.04329294 -15.64879045 9.47452375 -13.625 4.875 C-10.16372476 2.40266054 -7.32953481 2.35470155 -3.14453125 2.23828125 C-2.43683594 2.15964844 -1.72914063 2.08101562 -1 2 C-0.67 1.34 -0.34 0.68 0 0 Z " fill="#1A1E32" transform="translate(175,208)"/>
<path d="M0 0 C3.63 0 7.26 0 11 0 C11 1.32 11 2.64 11 4 C8.69 4 6.38 4 4 4 C4 4.99 4 5.98 4 7 C4.763125 7.12375 5.52625 7.2475 6.3125 7.375 C9 8 9 8 12 10 C12.328125 11.875 12.328125 11.875 12.25 14 C12.23453125 14.70125 12.2190625 15.4025 12.203125 16.125 C12 18 12 18 11 20 C7.39427296 21.20190901 4.7897565 21.32670315 1 21 C-1.75329021 19.20437595 -3.52627461 17.94745078 -5 15 C-5.66 15 -6.32 15 -7 15 C-6.79375 15.78375 -6.5875 16.5675 -6.375 17.375 C-6.25125 18.24125 -6.1275 19.1075 -6 20 C-6.66 20.66 -7.32 21.32 -8 22 C-9.32 22 -10.64 22 -12 22 C-12 21.34 -12 20.68 -12 20 C-12.66 20 -13.32 20 -14 20 C-14.86354079 16.0748146 -15.15124583 13.51045466 -14 9.625 C-12 7 -12 7 -8.375 6.0625 C-6.704375 6.0315625 -6.704375 6.0315625 -5 6 C-4.67 6.33 -4.34 6.66 -4 7 C-2.68 4.69 -1.36 2.38 0 0 Z " fill="#DEE2E6" transform="translate(208,211)"/>
<path d="M0 0 C3.5625 0.9375 3.5625 0.9375 6 2.8125 C8.34165593 7.49581186 8.43946503 11.80648533 7.5625 16.9375 C5.5 20.125 5.5 20.125 2.5625 21.9375 C-1 22.5 -1 22.5 -4.4375 21.9375 C-7.34467073 19.71886971 -8.27731643 18.41805071 -9.4375 14.9375 C-9.78297151 9.58269163 -9.90112011 6.2990957 -6.4375 1.9375 C-3.4375 -0.0625 -3.4375 -0.0625 0 0 Z " fill="#202338" transform="translate(1752.4375,210.0625)"/>
<path d="M0 0 C3.61026786 1.18154221 5.11453821 2.17662542 7.4375 5.125 C9.31034445 8.87068889 8.76377263 12.92866704 7.6875 16.875 C6.20768018 19.53867568 5.13679184 20.70037375 2.4375 22.125 C-0.5625 22.5625 -0.5625 22.5625 -3.5625 22.125 C-6.50580995 19.73853247 -8.35472359 17.77533831 -8.8359375 13.953125 C-9.00781518 9.59007612 -9.11903336 6.08697272 -6.5 2.4375 C-3.5625 0.125 -3.5625 0.125 0 0 Z " fill="#090E22" transform="translate(1678.5625,209.875)"/>
<path d="M0 0 C3.92799524 0.06749133 5.70770604 0.80808242 9.625 2.375 C9.625 9.635 9.625 16.895 9.625 24.375 C7.315 24.375 5.005 24.375 2.625 24.375 C2.295 22.395 1.965 20.415 1.625 18.375 C0.965 19.365 0.305 20.355 -0.375 21.375 C-2.02321244 22.40513277 -3.69003702 23.40614628 -5.375 24.375 C-6.035 25.035 -6.695 25.695 -7.375 26.375 C-10 26.5 -10 26.5 -12.375 26.375 C-12.705 25.715 -13.035 25.055 -13.375 24.375 C-12.281875 24.1275 -11.18875 23.88 -10.0625 23.625 C-6.47306042 22.6567088 -6.47306042 22.6567088 -4.4375 20.75 C-2.26726323 15.89888251 -3.11725461 10.40598155 -4.375 5.375 C-5.365 5.045 -6.355 4.715 -7.375 4.375 C-5.61123765 0.61230699 -3.94119163 0.06557723 0 0 Z " fill="#E8EBEE" transform="translate(179.375,207.625)"/>
<path d="M0 0 C0.66 0.33 1.32 0.66 2 1 C1.67 2.98 1.34 4.96 1 7 C2.32 6.67 3.64 6.34 5 6 C4.01 6.495 4.01 6.495 3 7 C3 18.55 3 30.1 3 42 C0.525 42.495 0.525 42.495 -2 43 C-4.12047383 40.87952617 -3.18868187 36.15729778 -3.203125 33.22265625 C-3.20882507 32.34097275 -3.21452515 31.45928925 -3.22039795 30.55088806 C-3.22986205 28.682131 -3.23638751 26.81335714 -3.24023438 24.94458008 C-3.2499475 22.07799352 -3.28096028 19.21212142 -3.3125 16.34570312 C-3.31902892 14.53385844 -3.32427983 12.72200861 -3.328125 10.91015625 C-3.3404718 10.0486647 -3.3528186 9.18717316 -3.36553955 8.29957581 C-3.35644531 5.88305664 -3.35644531 5.88305664 -3 2 C-2.01 1.34 -1.02 0.68 0 0 Z " fill="#030723" transform="translate(716,327)"/>
<path d="M0 0 C1.32 0.33 2.64 0.66 4 1 C4 24.1 4 47.2 4 71 C2.02 71 0.04 71 -2 71 C-2.33 70.01 -2.66 69.02 -3 68 C-1.02 67.01 -1.02 67.01 1 66 C0.99777939 65.29922333 0.99555878 64.59844666 0.99327087 63.87643433 C0.97319201 57.25604178 0.95798721 50.6356578 0.94818783 44.01524162 C0.94298044 40.61203583 0.93592192 37.20885531 0.92456055 33.80566406 C0.91156647 29.888675 0.90675405 25.971696 0.90234375 22.0546875 C0.89718246 20.83884979 0.89202118 19.62301208 0.88670349 18.37033081 C0.88662796 17.22960114 0.88655243 16.08887146 0.88647461 14.91357422 C0.884254 13.91429901 0.88203339 12.9150238 0.87974548 11.88546753 C1.0060918 8.8538293 1.44160577 5.97988879 2 3 C1.01 2.67 0.02 2.34 -1 2 C-0.67 1.34 -0.34 0.68 0 0 Z " fill="#161A31" transform="translate(778,295)"/>
<path d="M0 0 C1.9375 1.125 1.9375 1.125 3 3 C3.56045628 7.32351988 3.4786058 9.29704773 1 12.9375 C0.34 13.618125 -0.32 14.29875 -1 15 C0.65 15.33 2.3 15.66 4 16 C4 17.65 4 19.3 4 21 C-1.61 21 -7.22 21 -13 21 C-11.89692908 17.69078724 -11.31045272 17.28976371 -8.625 15.3125 C-4.58283481 12.01734686 -3.45044425 8.94857448 -2 4 C-4.47266765 4.34444881 -4.47266765 4.34444881 -7 5 C-7.33 5.66 -7.66 6.32 -8 7 C-9.32 6.67 -10.64 6.34 -12 6 C-11.64267506 3.40939422 -11.1383604 2.15432506 -9.375 0.1875 C-5.92246609 -1.53876696 -3.67500368 -0.93545548 0 0 Z " fill="#333547" transform="translate(1704,211)"/>
<path d="M0 0 C1.65 0 3.3 0 5 0 C5 3.96 5 7.92 5 12 C5.99 12 6.98 12 8 12 C8 13.32 8 14.64 8 16 C7.01 16 6.02 16 5 16 C5 17.65 5 19.3 5 21 C3.68 21 2.36 21 1 21 C1 19.35 1 17.7 1 16 C-2.3 16 -5.6 16 -9 16 C-8.00196856 12.00787422 -6.72276062 9.72407316 -4.5 6.3125 C-3.8709375 5.33925781 -3.241875 4.36601562 -2.59375 3.36328125 C-1 1 -1 1 0 0 Z " fill="#090B28" transform="translate(1732,211)"/>
<path d="M0 0 C1.65 0 3.3 0 5 0 C5 3.96 5 7.92 5 12 C5.99 12 6.98 12 8 12 C8 13.32 8 14.64 8 16 C7.01 16 6.02 16 5 16 C5 17.65 5 19.3 5 21 C3.68 21 2.36 21 1 21 C1 19.35 1 17.7 1 16 C-2.3 16 -5.6 16 -9 16 C-7.58639939 10.0314641 -4.30172864 4.36207354 0 0 Z " fill="#10132D" transform="translate(232,211)"/>
<path d="M0 0 C3.63 0 7.26 0 11 0 C11 1.32 11 2.64 11 4 C8.69 4 6.38 4 4 4 C4 4.99 4 5.98 4 7 C5.1446875 7.185625 5.1446875 7.185625 6.3125 7.375 C9 8 9 8 12 10 C12.328125 11.875 12.328125 11.875 12.25 14 C12.23453125 14.70125 12.2190625 15.4025 12.203125 16.125 C12 18 12 18 11 20 C7.43528609 21.18823797 4.7441664 21.26274852 1 21 C-1.4375 19.625 -1.4375 19.625 -3 18 C-3 17.34 -3 16.68 -3 16 C0.32534757 14.89155081 2.62182575 15.15545644 6 16 C5.67 14.35 5.34 12.7 5 11 C2.03 10.505 2.03 10.505 -1 10 C-0.67 6.7 -0.34 3.4 0 0 Z " fill="#0E1121" transform="translate(208,211)"/>
<path d="M0 0 C3.12290635 0.48578543 5.99580359 0.9986012 9 2 C9 2.66 9 3.32 9 4 C9.66 4.33 10.32 4.66 11 5 C10.34 6.32 9.68 7.64 9 9 C12.3 9 15.6 9 19 9 C19 10.65 19 12.3 19 14 C18.67 12.68 18.34 11.36 18 10 C15.69 10.33 13.38 10.66 11 11 C10.67 11.99 10.34 12.98 10 14 C8.68 13.34 7.36 12.68 6 12 C5.34 12.66 4.68 13.32 4 14 C2.35 13.67 0.7 13.34 -1 13 C-1.66 9.7 -2.32 6.4 -3 3 C-2.34 3 -1.68 3 -1 3 C-0.67 2.01 -0.34 1.02 0 0 Z " fill="#DCE0E2" transform="translate(1714,218)"/>
<path d="M0 0 C0.33 0.99 0.66 1.98 1 3 C-0.98 3.99 -0.98 3.99 -3 5 C-3 8.3 -3 11.6 -3 15 C-1.68 15.33 -0.36 15.66 1 16 C1.66 15.34 2.32 14.68 3 14 C3.99 14.99 4.98 15.98 6 17 C3.73943528 19.7822335 2.5944274 20.90092877 -1 21.5 C-4.63326668 20.89445555 -5.74144325 19.8441085 -8 17 C-9.21977329 14.56045342 -9.20153813 12.84694151 -9.25 10.125 C-9.27578125 9.26132813 -9.3015625 8.39765625 -9.328125 7.5078125 C-8.93322688 4.48966259 -8.09329196 3.1813276 -6 1 C-3 0 -3 0 0 0 Z " fill="#16162F" transform="translate(1679,211)"/>
<path d="M0 0 C4.46640271 1.32337858 4.46640271 1.32337858 6.375 4 C6.66796875 6.91796875 6.66796875 6.91796875 6.5625 10.1875 C6.53542969 11.27417969 6.50835938 12.36085937 6.48046875 13.48046875 C6.44566406 14.31191406 6.41085937 15.14335937 6.375 16 C5.385 16.33 4.395 16.66 3.375 17 C3.31441406 16.37351563 3.25382812 15.74703125 3.19140625 15.1015625 C3.06572266 13.87566406 3.06572266 13.87566406 2.9375 12.625 C2.85628906 11.81289062 2.77507812 11.00078125 2.69140625 10.1640625 C2.48409886 7.95727195 2.48409886 7.95727195 1.375 6 C-0.275 6 -1.925 6 -3.625 6 C-3.955 8.97 -4.285 11.94 -4.625 15 C-5.615 15.33 -6.605 15.66 -7.625 16 C-8.86793159 12.27120522 -9.27832641 8.86739194 -8.625 5 C-5.9573351 1.03892181 -4.82598436 0 0 0 Z " fill="#141728" transform="translate(1752.625,210)"/>
<path d="M0 0 C0 6.93 0 13.86 0 21 C-1.65 21 -3.3 21 -5 21 C-5 16.38 -5 11.76 -5 7 C-5.99 7.33 -6.98 7.66 -8 8 C-8.3125 5.6875 -8.3125 5.6875 -8 3 C-5.13896577 0.75756777 -3.65923696 0 0 0 Z " fill="#242940" transform="translate(189,211)"/>
<path d="M0 0 C1.32 0.33 2.64 0.66 4 1 C3.649375 1.78375 3.29875 2.5675 2.9375 3.375 C2.628125 4.24125 2.31875 5.1075 2 6 C2.33 6.66 2.66 7.32 3 8 C3.99 8.33 4.98 8.66 6 9 C5.67 9.99 5.34 10.98 5 12 C4.34 12 3.68 12 3 12 C3.33 13.65 3.66 15.3 4 17 C-0.95 17.495 -0.95 17.495 -6 18 C-5.34 17.154375 -4.68 16.30875 -4 15.4375 C-1.71918218 11.51734437 -1.49528568 9.45830982 -2 5 C-2.66 4.01 -3.32 3.02 -4 2 C-2.68 2 -1.36 2 0 2 C0 1.34 0 0.68 0 0 Z " fill="#F1F1F3" transform="translate(1708,209)"/>
<path d="M0 0 C1.9375 1.125 1.9375 1.125 3 3 C3.1875 6.6875 3.1875 6.6875 3 10 C1.0625 10.5625 1.0625 10.5625 -1 11 C-2 10 -2 10 -2.0625 6.9375 C-2.0315625 5.4834375 -2.0315625 5.4834375 -2 4 C-4.47266765 4.34444881 -4.47266765 4.34444881 -7 5 C-7.33 5.66 -7.66 6.32 -8 7 C-9.32 6.67 -10.64 6.34 -12 6 C-11.64267506 3.40939422 -11.1383604 2.15432506 -9.375 0.1875 C-5.92246609 -1.53876696 -3.67500368 -0.93545548 0 0 Z " fill="#101528" transform="translate(1704,211)"/>
<path d="M0 0 C1.134375 0.020625 2.26875 0.04125 3.4375 0.0625 C3.4375 2.7025 3.4375 5.3425 3.4375 8.0625 C4.08203125 8.28679687 4.7265625 8.51109375 5.390625 8.7421875 C7.4375 10.0625 7.4375 10.0625 8.046875 12.4453125 C8.09328125 13.35023438 8.1396875 14.25515625 8.1875 15.1875 C8.24421875 16.09757812 8.3009375 17.00765625 8.359375 17.9453125 C8.39804688 18.99332031 8.39804688 18.99332031 8.4375 20.0625 C7.65375 20.165625 6.87 20.26875 6.0625 20.375 C3.10704819 20.83845022 3.10704819 20.83845022 1.4375 24.0625 C1.4375 22.4125 1.4375 20.7625 1.4375 19.0625 C2.4275 19.0625 3.4175 19.0625 4.4375 19.0625 C4.4375 17.7425 4.4375 16.4225 4.4375 15.0625 C3.4475 15.0625 2.4575 15.0625 1.4375 15.0625 C1.4375 11.1025 1.4375 7.1425 1.4375 3.0625 C-3.42382495 3.55402482 -3.42382495 3.55402482 -5.5625 6.0625 C-4.48849278 0.07874549 -4.48849278 0.07874549 0 0 Z " fill="#F3F7FA" transform="translate(1735.5625,207.9375)"/>
<path d="M0 0 C2.64 0.66 5.28 1.32 8 2 C8 2.33 8 2.66 8 3 C6.35 3 4.7 3 3 3 C2.73316406 3.72832031 2.46632812 4.45664063 2.19140625 5.20703125 C1.01267785 7.97027979 -0.35805391 10.22086918 -2.0625 12.6875 C-4.1822024 15.75500089 -4.1822024 15.75500089 -6 19 C-2.7 19 0.6 19 4 19 C4 19.33 4 19.66 4 20 C1.03 20 -1.94 20 -5 20 C-5 20.66 -5 21.32 -5 22 C-6.65 22.66 -8.3 23.32 -10 24 C-9.34 20.37 -8.68 16.74 -8 13 C-7.01 13.33 -6.02 13.66 -5 14 C-4.731875 12.989375 -4.46375 11.97875 -4.1875 10.9375 C-3.1064844 7.12672558 -1.62137662 3.61124792 0 0 Z " fill="#E1E4E8" transform="translate(229,208)"/>
<path d="M0 0 C2.5 0.125 2.5 0.125 3.5 1.125 C3.59854655 2.76840867 3.62972411 4.4161461 3.625 6.0625 C3.62757812 6.95839844 3.63015625 7.85429687 3.6328125 8.77734375 C3.5 11.125 3.5 11.125 2.5 13.125 C-2.375 12.25 -2.375 12.25 -3.5 11.125 C-3.59823937 9.46070949 -3.62973631 7.79218069 -3.625 6.125 C-3.62757812 5.2175 -3.63015625 4.31 -3.6328125 3.375 C-3.44447559 0.18435126 -3.20783655 0.16039183 0 0 Z " fill="#F9FBFC" transform="translate(1751.5,214.875)"/>
<path d="M0 0 C4.70588235 0.70588235 4.70588235 0.70588235 6 2 C6.16796875 3.99609375 6.16796875 3.99609375 6.1875 6.4375 C6.20167969 7.24058594 6.21585938 8.04367188 6.23046875 8.87109375 C6 11 6 11 4 13 C2.68 13 1.36 13 0 13 C-1.25069801 10.49860398 -1.13302467 8.72607309 -1.125 5.9375 C-1.12757813 5.03902344 -1.13015625 4.14054688 -1.1328125 3.21484375 C-1 1 -1 1 0 0 Z " fill="#E7EBF2" transform="translate(166,215)"/>
<path d="M0 0 C4.70588235 0.70588235 4.70588235 0.70588235 6 2 C6.36090226 9.45864662 6.36090226 9.45864662 4 13 C0.125 12.125 0.125 12.125 -1 11 C-1.09823937 9.33570949 -1.12973631 7.66718069 -1.125 6 C-1.12757812 5.0925 -1.13015625 4.185 -1.1328125 3.25 C-1 1 -1 1 0 0 Z " fill="#DEE2E7" transform="translate(1676,215)"/>
<path d="M0 0 C5.75 2.75 5.75 2.75 8 5 C8.0625 7.375 8.0625 7.375 7 10 C4.74112396 11.8486965 2.72133473 12.78009133 0 14 C-0.99 13.67 -1.98 13.34 -3 13 C-2.34 12.67 -1.68 12.34 -1 12 C0.13350534 9.98330173 0.13350534 9.98330173 1 8 C1.66 8 2.32 8 3 8 C2.67 7.01 2.34 6.02 2 5 C-0.31 4.67 -2.62 4.34 -5 4 C-2 2 -2 2 0 2 C0 1.34 0 0.68 0 0 Z " fill="#12142F" transform="translate(1020,324)"/>
<path d="M0 0 C0.33 0 0.66 0 1 0 C1.33 3.63 1.66 7.26 2 11 C3.15811388 8.05270463 3.15811388 8.05270463 3 5 C5.31 5.33 7.62 5.66 10 6 C9.01 6.66 8.02 7.32 7 8 C5.04753297 12.41874118 4.80822619 16.2056548 5 21 C4.01 20.67 3.02 20.34 2 20 C1.34 20.33 0.68 20.66 0 21 C0 14.07 0 7.14 0 0 Z " fill="#E6EBEF" transform="translate(189,211)"/>
<path d="M0 0 C0.5534764 2.07553648 1 3.84365964 1 6 C2.65 6.33 4.3 6.66 6 7 C6 9.97 6 12.94 6 16 C5.34 15.67 4.68 15.34 4 15 C3.375 12.4375 3.375 12.4375 3 10 C2.01 11.485 2.01 11.485 1 13 C-0.64821244 14.03013277 -2.31503702 15.03114628 -4 16 C-4.66 16.66 -5.32 17.32 -6 18 C-8.625 18.125 -8.625 18.125 -11 18 C-11.33 17.34 -11.66 16.68 -12 16 C-10.3603125 15.62875 -10.3603125 15.62875 -8.6875 15.25 C-5.11327388 14.28484389 -5.11327388 14.28484389 -3.125 12.4375 C-1.67044498 9.28596413 -1.44751858 6.36747263 -1.2109375 2.92578125 C-1 1 -1 1 0 0 Z " fill="#F5F6F8" transform="translate(178,216)"/>
<path d="M0 0 C2.89504691 0.55337919 4.21643261 2.0711289 5.94140625 4.37109375 C5.61140625 5.03109375 5.28140625 5.69109375 4.94140625 6.37109375 C1.97140625 5.87609375 1.97140625 5.87609375 -1.05859375 5.37109375 C-1.05859375 6.03109375 -1.05859375 6.69109375 -1.05859375 7.37109375 C-3.03859375 7.70109375 -5.01859375 8.03109375 -7.05859375 8.37109375 C-7.71859375 6.72109375 -8.37859375 5.07109375 -9.05859375 3.37109375 C-6.739281 -0.10787538 -3.99636234 -0.12511632 0 0 Z " fill="#070827" transform="translate(1452.05859375,142.62890625)"/>
<path d="M0 0 C0 0.66 0 1.32 0 2 C-0.66 2 -1.32 2 -2 2 C-1.67 3.98 -1.34 5.96 -1 8 C-1.639375 7.814375 -2.27875 7.62875 -2.9375 7.4375 C-3.9584375 7.2209375 -3.9584375 7.2209375 -5 7 C-5.33 7.33 -5.66 7.66 -6 8 C-6.99 8 -7.98 8 -9 8 C-9.99 8.680625 -10.98 9.36125 -12 10.0625 C-12.99 10.701875 -13.98 11.34125 -15 12 C-15.99 11.67 -16.98 11.34 -18 11 C-18.33 10.34 -18.66 9.68 -19 9 C-16.2118978 7.4933028 -13.41896042 5.99580196 -10.625 4.5 C-9.8309375 4.07074219 -9.036875 3.64148438 -8.21875 3.19921875 C-7.45820312 2.79316406 -6.69765625 2.38710938 -5.9140625 1.96875 C-4.8614624 1.40317383 -4.8614624 1.40317383 -3.78759766 0.82617188 C-2 0 -2 0 0 0 Z " fill="#151931" transform="translate(762,304)"/>
<path d="M0 0 C3.3 0 6.6 0 10 0 C8.29110763 3.41778474 4.49105371 4.53138777 1.1875 6.1875 C0.46240234 6.56841797 -0.26269531 6.94933594 -1.00976562 7.34179688 C-1.71423828 7.69693359 -2.41871094 8.05207031 -3.14453125 8.41796875 C-3.78753174 8.74563232 -4.43053223 9.0732959 -5.09301758 9.41088867 C-7.41903552 10.12944984 -8.72695105 9.77387773 -11 9 C-10.34 8.67 -9.68 8.34 -9 8 C-8.34227572 4.97065509 -8.34227572 4.97065509 -8 2 C-5.69 2.33 -3.38 2.66 -1 3 C-0.67 2.01 -0.34 1.02 0 0 Z " fill="#111631" transform="translate(950,369)"/>
<path d="M0 0 C0.9796875 0.00515625 1.959375 0.0103125 2.96875 0.015625 C3.9484375 0.01046875 4.928125 0.0053125 5.9375 0 C8.46875 0.265625 8.46875 0.265625 10.46875 2.265625 C9.14875 2.265625 7.82875 2.265625 6.46875 2.265625 C6.46875 2.925625 6.46875 3.585625 6.46875 4.265625 C7.12875 4.760625 7.78875 5.255625 8.46875 5.765625 C9.12875 6.260625 9.78875 6.755625 10.46875 7.265625 C10.46875 7.925625 10.46875 8.585625 10.46875 9.265625 C9.80875 9.265625 9.14875 9.265625 8.46875 9.265625 C8.13875 10.255625 7.80875 11.245625 7.46875 12.265625 C7.159375 11.54375 6.85 10.821875 6.53125 10.078125 C3.61105728 6.09604402 -0.16485871 4.41678213 -4.53125 2.265625 C-2.53125 0.265625 -2.53125 0.265625 0 0 Z " fill="#EDF1F2" transform="translate(1020.53125,319.734375)"/>
<path d="M0 0 C0 0.99 0 1.98 0 3 C-0.66 3 -1.32 3 -2 3 C-2 4.65 -2 6.3 -2 8 C-3.32 8 -4.64 8 -6 8 C-6 6.35 -6 4.7 -6 3 C-9.3 3 -12.6 3 -16 3 C-16 2.34 -16 1.68 -16 1 C-11.03521396 -2.17746307 -5.49763065 -1.33275895 0 0 Z " fill="#030A1E" transform="translate(239,224)"/>
<path d="M0 0 C3.63 0 7.26 0 11 0 C11 1.32 11 2.64 11 4 C8.69 4 6.38 4 4 4 C4 4.99 4 5.98 4 7 C2.35 7.33 0.7 7.66 -1 8 C-0.67 5.36 -0.34 2.72 0 0 Z " fill="#171B32" transform="translate(208,211)"/>
<path d="M0 0 C0.33 0 0.66 0 1 0 C1.33 1.65 1.66 3.3 2 5 C2.99 4.67 3.98 4.34 5 4 C4.6875 5.9375 4.6875 5.9375 4 8 C0.43528609 9.18823797 -2.2558336 9.26274852 -6 9 C-8.4375 7.625 -8.4375 7.625 -10 6 C-10 5.34 -10 4.68 -10 4 C-6.67465243 2.89155081 -4.37817425 3.15545644 -1 4 C-0.67 2.68 -0.34 1.36 0 0 Z " fill="#1F2031" transform="translate(215,223)"/>
<path d="M0 0 C0.66 0.33 1.32 0.66 2 1 C0.68 2.32 -0.64 3.64 -2 5 C-1.67 5.66 -1.34 6.32 -1 7 C-4.49779716 8.65173755 -6.31898383 9.22700539 -10 8 C-10.99 8 -11.98 8 -13 8 C-12.625 6.0625 -12.625 6.0625 -12 4 C-10 3 -10 3 -7.125 2.5625 C-4.06070266 2.16239338 -4.06070266 2.16239338 -1.75 0.875 C-0.88375 0.441875 -0.88375 0.441875 0 0 Z " fill="#EEF1F2" transform="translate(949,375)"/>
<path d="M0 0 C1.84765625 0.33984375 1.84765625 0.33984375 4.0625 0.9375 C5.16271484 1.22947266 5.16271484 1.22947266 6.28515625 1.52734375 C7.13400391 1.76130859 7.13400391 1.76130859 8 2 C8 1.34 8 0.68 8 0 C8.66 0 9.32 0 10 0 C10.33 2.97 10.66 5.94 11 9 C10.01 9 9.02 9 8 9 C8 7.68 8 6.36 8 5 C4.7 5 1.4 5 -2 5 C-1 1 -1 1 0 0 Z " fill="#050821" transform="translate(1725,222)"/>
<path d="M0 0 C3 -0.3125 3 -0.3125 6 0 C6.66 0.66 7.32 1.32 8 2 C4.38671875 6.6875 4.38671875 6.6875 3 8 C2.01 8 1.02 8 0 8 C0 7.01 0 6.02 0 5 C-0.66 6.65 -1.32 8.3 -2 10 C-4 8 -4 8 -4.125 5.375 C-4.08375 4.59125 -4.0425 3.8075 -4 3 C-3.34 3 -2.68 3 -2 3 C-1.34 2.01 -0.68 1.02 0 0 Z " fill="#F4F5F3" transform="translate(1668,208)"/>
<path d="M0 0 C0.69867187 0.144375 1.39734375 0.28875 2.1171875 0.4375 C3.02726562 0.623125 3.93734375 0.80875 4.875 1 C5.77992187 1.185625 6.68484375 1.37125 7.6171875 1.5625 C9.92407903 2.06019595 9.92407903 2.06019595 12 2 C10.25 5.875 10.25 5.875 8 7 C4.5 7.1875 4.5 7.1875 1 7 C0.34 6.34 -0.32 5.68 -1 5 C-0.625 2.375 -0.625 2.375 0 0 Z " fill="#0F1227" transform="translate(1445,168)"/>
<path d="M0 0 C2.39639901 0.33053779 4.38055243 1.15403312 6.625 2.0625 C8.88449553 3.12238884 8.88449553 3.12238884 11 3 C11 3.66 11 4.32 11 5 C11.66 5 12.32 5 13 5 C13.33 4.34 13.66 3.68 14 3 C14 3.99 14 4.98 14 6 C11 8 11 8 9.109375 7.78515625 C6.66910836 6.87683478 4.50850839 5.73282099 2.25 4.4375 C1.45078125 3.98246094 0.6515625 3.52742188 -0.171875 3.05859375 C-0.77515625 2.70925781 -1.3784375 2.35992187 -2 2 C-1.34 1.34 -0.68 0.68 0 0 Z " fill="#151834" transform="translate(721,333)"/>
<path d="M0 0 C1.32 0.66 2.64 1.32 4 2 C4.33 1.34 4.66 0.68 5 0 C8.465 1.485 8.465 1.485 12 3 C12 4.32 12 5.64 12 7 C11.01 7.495 11.01 7.495 10 8 C7.3984375 6.78515625 7.3984375 6.78515625 4.375 5.0625 C3.37210938 4.49660156 2.36921875 3.93070312 1.3359375 3.34765625 C0.56507813 2.90292969 -0.20578125 2.45820313 -1 2 C-0.67 1.34 -0.34 0.68 0 0 Z " fill="#F0F2F5" transform="translate(987,304)"/>
<path d="M0 0 C0.33 0.99 0.66 1.98 1 3 C0.38125 3.165 -0.2375 3.33 -0.875 3.5 C-4.27756949 5.90181375 -4.22612026 9.00162134 -5 13 C-5.99 13 -6.98 13 -8 13 C-8.28527271 9.62110327 -8.44483998 6.36884909 -8 3 C-5.16973341 0.39921448 -3.82254857 0 0 0 Z " fill="#131523" transform="translate(1679,211)"/>
<path d="M0 0 C0.33 1.65 0.66 3.3 1 5 C0.01 5.66 -0.98 6.32 -2 7 C-4.64 5.68 -7.28 4.36 -10 3 C-9.34 2.67 -8.68 2.34 -8 2 C-7.67 1.34 -7.34 0.68 -7 0 C-4.0262656 -1.09036928 -3.11592499 -1.03864166 0 0 Z " fill="#F6F4F6" transform="translate(1199,313)"/>
<path d="M0 0 C6 3 12 6 18 9 C16.22265625 10.1171875 16.22265625 10.1171875 14 11 C12.18359375 10.3203125 12.18359375 10.3203125 10.4375 9.125 C7.86393006 7.39400196 7.2457765 7 4 7 C1.37211508 4.97855006 0.55774272 3.23490776 0 0 Z " fill="#1C1E37" transform="translate(968,296)"/>
<path d="M0 0 C-0.6875 2.4375 -0.6875 2.4375 -2 5 C-4.80968687 5.93656229 -7.03799136 6 -10 6 C-10.33 6.66 -10.66 7.32 -11 8 C-11.66 8 -12.32 8 -13 8 C-12.36338468 5.13523105 -11.63204884 3.43956744 -9.19140625 1.7421875 C-3.5906985 -1.1968995 -3.5906985 -1.1968995 0 0 Z " fill="#E5E4E9" transform="translate(1191,347)"/>
<path d="M0 0 C3.7910119 1.44950455 7.3874638 3.15172566 11 5 C9.9375 6.5625 9.9375 6.5625 8 8 C4.3125 7.6875 4.3125 7.6875 1 7 C0.67 4.69 0.34 2.38 0 0 Z " fill="#0E142F" transform="translate(1182,312)"/>
<path d="M0 0 C2.13093906 1.06546953 3.36587557 2.29159719 5 4 C2.66666667 6.33333333 0.33333333 8.66666667 -2 11 C-2.99 10.01 -3.98 9.02 -5 8 C-3.88213958 4.64641875 -2.25245881 2.68841859 0 0 Z " fill="#F1F2F4" transform="translate(1743,208)"/>
<path d="M0 0 C-0.33 1.65 -0.66 3.3 -1 5 C-1.639375 5.12375 -2.27875 5.2475 -2.9375 5.375 C-3.9584375 5.684375 -3.9584375 5.684375 -5 6 C-5.33 6.66 -5.66 7.32 -6 8 C-7.32 7.67 -8.64 7.34 -10 7 C-9.63206382 4.33246269 -9.18001672 3.18001672 -7.25 1.25 C-4.62056017 -0.21079991 -2.9625559 -0.24687966 0 0 Z " fill="#2C2D48" transform="translate(1702,210)"/>
<path d="M0 0 C0.515625 0.495 1.03125 0.99 1.5625 1.5 C4.90028661 3.55402253 7.14399755 3.41314312 11 3 C13.40083438 1.64114884 13.40083438 1.64114884 15 0 C14.25 2.9375 14.25 2.9375 13 6 C9.92066251 7.27745442 7.56539186 6.92907938 4.375 6.1875 C3.21097656 5.93033203 3.21097656 5.93033203 2.0234375 5.66796875 C0 5 0 5 -2 3 C-1.34 2.01 -0.68 1.02 0 0 Z " fill="#E8EBF0" transform="translate(1744,228)"/>
<path d="M0 0 C0.33 0.99 0.66 1.98 1 3 C1.99 3.33 2.98 3.66 4 4 C3.67 4.99 3.34 5.98 3 7 C2.34 7 1.68 7 1 7 C1 6.34 1 5.68 1 5 C0.113125 5.165 -0.77375 5.33 -1.6875 5.5 C-4.53596892 5.92995757 -7.13004802 6.08441035 -10 6 C-6.87567603 3.47650757 -3.61939504 1.72743854 0 0 Z " fill="#E6E6EC" transform="translate(1020,337)"/>
<path d="M0 0 C1.32 0.99 2.64 1.98 4 3 C3.01 3.66 2.02 4.32 1 5 C1.99 6.485 1.99 6.485 3 8 C2.67 8.99 2.34 9.98 2 11 C-0.97 10.505 -0.97 10.505 -4 10 C-3.25130208 8.27473958 -2.50260417 6.54947917 -1.75390625 4.82421875 C-1.10038058 3.24288979 -0.54108198 1.62324594 0 0 Z M4 5 C5.32 5.66 6.64 6.32 8 7 C7.01 7.495 7.01 7.495 6 8 C5.01 7.34 4.02 6.68 3 6 C3.33 5.67 3.66 5.34 4 5 Z " fill="#E6E9EC" transform="translate(1687,221)"/>
<path d="M0 0 C0.33 0 0.66 0 1 0 C1.33 2.97 1.66 5.94 2 9 C2.99 8.67 3.98 8.34 5 8 C7 11.75 7 11.75 7 14 C8.65 14 10.3 14 12 14 C12 14.33 12 14.66 12 15 C5.64096386 15.48915663 5.64096386 15.48915663 2.625 13.1875 C-0.55894783 8.90141639 -0.08369891 5.10563326 0 0 Z " fill="#282B3F" transform="translate(1743,217)"/>
<path d="M0 0 C2.5 0.125 2.5 0.125 3.5 1.125 C3.59854655 2.76840867 3.62972411 4.4161461 3.625 6.0625 C3.62757812 6.95839844 3.63015625 7.85429687 3.6328125 8.77734375 C3.5 11.125 3.5 11.125 2.5 13.125 C-2.375 12.25 -2.375 12.25 -3.5 11.125 C-3.59823937 9.46070949 -3.62973631 7.79218069 -3.625 6.125 C-3.62757812 5.2175 -3.63015625 4.31 -3.6328125 3.375 C-3.44447559 0.18435126 -3.20783655 0.16039183 0 0 Z M-1.5 1.125 C-2.91577477 2.30924326 -2.91577477 2.30924326 -2.5625 5.6875 C-2.541875 6.821875 -2.52125 7.95625 -2.5 9.125 C-0.025 10.115 -0.025 10.115 2.5 11.125 C2.5 8.155 2.5 5.185 2.5 2.125 C1.18 1.795 -0.14 1.465 -1.5 1.125 Z " fill="#C8CCD5" transform="translate(1751.5,214.875)"/>
<path d="M0 0 C0.33 0.66 0.66 1.32 1 2 C2.98 1.34 4.96 0.68 7 0 C7.33 0.66 7.66 1.32 8 2 C6.59248779 2.86916887 5.1735479 3.71985149 3.75 4.5625 C2.96109375 5.03816406 2.1721875 5.51382812 1.359375 6.00390625 C-1.30844625 7.13022151 -2.34501768 7.0169313 -5 6 C-4.67 4.68 -4.34 3.36 -4 2 C-4 2.66 -4 3.32 -4 4 C-3.34 4 -2.68 4 -2 4 C-1.34 2.68 -0.68 1.36 0 0 Z " fill="#E5E3ED" transform="translate(765,296)"/>
<path d="M0 0 C2.31 0 4.62 0 7 0 C8.125 4.75 8.125 4.75 7 7 C5.02 6.34 3.04 5.68 1 5 C0.67 3.35 0.34 1.7 0 0 Z " fill="#EDEFF3" transform="translate(960,288)"/>
<path d="M0 0 C1.32 0.33 2.64 0.66 4 1 C3.649375 1.763125 3.29875 2.52625 2.9375 3.3125 C1.67639116 6.04759379 1.67639116 6.04759379 3 9 C1.02 9.99 1.02 9.99 -1 11 C-1.309375 9.88625 -1.61875 8.7725 -1.9375 7.625 C-2.82326483 4.2054845 -2.82326483 4.2054845 -4 2 C-2.68 2 -1.36 2 0 2 C0 1.34 0 0.68 0 0 Z " fill="#E5E7EB" transform="translate(1708,209)"/>
<path d="M0 0 C4.87664905 0.3324988 7.41420857 1.73060194 11 5 C7.625 5.625 7.625 5.625 4 6 C3.34 5.34 2.68 4.68 2 4 C1.34 4.66 0.68 5.32 0 6 C-0.38218767 4.34385343 -0.71395102 2.67542976 -1 1 C-0.67 0.67 -0.34 0.34 0 0 Z " fill="#25283D" transform="translate(939,282)"/>
<path d="M0 0 C2 1 2 1 3 3 C2.34 3 1.68 3 1 3 C1 3.66 1 4.32 1 5 C0.030625 5.28875 -0.93875 5.5775 -1.9375 5.875 C-5.10664203 6.64214682 -5.10664203 6.64214682 -6 9 C-6.66 9 -7.32 9 -8 9 C-8.33 7.68 -8.66 6.36 -9 5 C-7.54735962 4.1361871 -6.0876837 3.28419546 -4.625 2.4375 C-3.40683594 1.72400391 -3.40683594 1.72400391 -2.1640625 0.99609375 C-1.44992187 0.66738281 -0.73578125 0.33867187 0 0 Z " fill="#0F102D" transform="translate(728,321)"/>
<path d="M0 0 C0.33 0 0.66 0 1 0 C1 4.95 1 9.9 1 15 C0.01 15 -0.98 15 -2 15 C-2.05429959 13.25034642 -2.09292823 11.50020213 -2.125 9.75 C-2.15980469 8.28820312 -2.15980469 8.28820312 -2.1953125 6.796875 C-1.99862781 3.9803502 -1.44568916 2.39050964 0 0 Z " fill="#060824" transform="translate(187,216)"/>
<path d="M0 0 C1.20628008 2.33214148 2.1654738 4.49642139 3 7 C3.33 5.35 3.66 3.7 4 2 C4.33 2 4.66 2 5 2 C5.22786458 4.01822917 5.45572917 6.03645833 5.68359375 8.0546875 C5.91292961 10.07404316 5.91292961 10.07404316 7 12 C5.35 12.33 3.7 12.66 2 13 C-0.20914 9.68629 -0.22481553 8.6553979 -0.125 4.8125 C-0.10695313 3.91144531 -0.08890625 3.01039063 -0.0703125 2.08203125 C-0.04710937 1.39496094 -0.02390625 0.70789063 0 0 Z " fill="#23263C" transform="translate(1670,216)"/>
<path d="M0 0 C2.31 0 4.62 0 7 0 C6.67 4.95 6.34 9.9 6 15 C5.67 15 5.34 15 5 15 C5 11.04 5 7.08 5 3 C0.13867505 3.49152482 0.13867505 3.49152482 -2 6 C-1.125 1.125 -1.125 1.125 0 0 Z " fill="#D6D7E1" transform="translate(1732,208)"/>
<path d="M0 0 C0.66 0.33 1.32 0.66 2 1 C2 2.65 2 4.3 2 6 C5.3 6 8.6 6 12 6 C12 6.33 12 6.66 12 7 C9.03 7 6.06 7 3 7 C3 7.66 3 8.32 3 9 C1.35 9.66 -0.3 10.32 -2 11 C-1.34 7.37 -0.68 3.74 0 0 Z " fill="#D7DBE1" transform="translate(221,221)"/>
<path d="M0 0 C1.32 0 2.64 0 4 0 C4 0.66 4 1.32 4 2 C6.31 2.66 8.62 3.32 11 4 C10.67 4.99 10.34 5.98 10 7 C5.76570244 5.68938409 1.92592596 4.05643741 -2 2 C-1.34 1.34 -0.68 0.68 0 0 Z " fill="#DFE1E9" transform="translate(1172,304)"/>
<path d="M0 0 C5.37583893 0.59731544 5.37583893 0.59731544 7.9375 2.25 C9 4 9 4 8.6875 6.6875 C8.460625 7.450625 8.23375 8.21375 8 9 C6.0625 8.1875 6.0625 8.1875 4 7 C3.67 6.01 3.34 5.02 3 4 C2.01979625 2.9805881 1.02196992 1.97753644 0 1 C0 0.67 0 0.34 0 0 Z " fill="#11142D" transform="translate(1148,295)"/>
<path d="M0 0 C6.4 0.49230769 6.4 0.49230769 9.4375 3.0625 C10.2109375 4.0215625 10.2109375 4.0215625 11 5 C10.67 5.66 10.34 6.32 10 7 C6.62537285 6.45276317 4.91765 5.9451 2 4 C2.66 3.67 3.32 3.34 4 3 C4 2.34 4 1.68 4 1 C2.35 1.33 0.7 1.66 -1 2 C-0.67 1.34 -0.34 0.68 0 0 Z " fill="#313547" transform="translate(1675,210)"/>
<path d="M0 0 C4 1.33333333 8 2.66666667 12 4 C8.64672361 6.23551759 8.09256343 6.17283528 4.3125 5.625 C3.50425781 5.51414062 2.69601562 5.40328125 1.86328125 5.2890625 C0.94095703 5.14597656 0.94095703 5.14597656 0 5 C0 3.35 0 1.7 0 0 Z " fill="#DBE1E6" transform="translate(769,362)"/>
<path d="M0 0 C0.66 0.33 1.32 0.66 2 1 C1.649375 1.61875 1.29875 2.2375 0.9375 2.875 C0.628125 3.57625 0.31875 4.2775 0 5 C0.33 5.66 0.66 6.32 1 7 C-1.8125 7.1875 -1.8125 7.1875 -5 7 C-6.69921875 5.48828125 -6.69921875 5.48828125 -8 4 C-6.71349294 3.30289269 -5.42059335 2.61757124 -4.125 1.9375 C-3.40570312 1.55464844 -2.68640625 1.17179687 -1.9453125 0.77734375 C-1.30335937 0.52082031 -0.66140625 0.26429688 0 0 Z " fill="#E9EAF0" transform="translate(1164,359)"/>
<path d="M0 0 C3.96 1.98 3.96 1.98 8 4 C6.3125 5.5625 6.3125 5.5625 4 7 C1.25 6.6875 1.25 6.6875 -1 6 C-0.67 4.02 -0.34 2.04 0 0 Z " fill="#E8EDF2" transform="translate(753,353)"/>
<path d="M0 0 C1.32 0.33 2.64 0.66 4 1 C4 4.3 4 7.6 4 11 C3.01 11.33 2.02 11.66 1 12 C0.67 8.04 0.34 4.08 0 0 Z " fill="#05081C" transform="translate(1755,215)"/>
<path d="M0 0 C-0.6875 2.875 -0.6875 2.875 -2 6 C-4.625 7.375 -4.625 7.375 -7 8 C-7.66 6.68 -8.32 5.36 -9 4 C-2.25 0 -2.25 0 0 0 Z " fill="#E8EAEF" transform="translate(1208,336)"/>
<path d="M0 0 C0.99 0.33 1.98 0.66 3 1 C3.125 3.375 3.125 3.375 3 6 C1 8 1 8 -1.625 8.125 C-2.40875 8.08375 -3.1925 8.0425 -4 8 C-2.66666667 5.33333333 -1.33333333 2.66666667 0 0 Z " fill="#0E1129" transform="translate(172,223)"/>
<path d="M0 0 C0.33 0.99 0.66 1.98 1 3 C-1.97 4.32 -4.94 5.64 -8 7 C-7.67 5.68 -7.34 4.36 -7 3 C-7.33 2.34 -7.66 1.68 -8 1 C-5.07175348 0.02391783 -3.04386724 -0.08226668 0 0 Z " fill="#0D1029" transform="translate(1000,345)"/>
<path d="M0 0 C1.75 1.375 1.75 1.375 2.5 4 C2.62375 5.175625 2.62375 5.175625 2.75 6.375 C-1.68090471 5.16657144 -4.23112756 3.85831435 -7.25 0.375 C-4.52958849 -0.38066986 -2.7481783 -0.76338286 0 0 Z " fill="#1A1F35" transform="translate(749.25,345.625)"/>
<path d="M0 0 C7.38461538 -0.49230769 7.38461538 -0.49230769 10.5 2 C10.995 2.66 11.49 3.32 12 4 C11.67 4.66 11.34 5.32 11 6 C9.02 5.34 7.04 4.68 5 4 C5 3.34 5 2.68 5 2 C3.35 1.67 1.7 1.34 0 1 C0 0.67 0 0.34 0 0 Z " fill="#323244" transform="translate(1446,143)"/>
<path d="M0 0 C0 1.98 0 3.96 0 6 C-0.928125 5.979375 -1.85625 5.95875 -2.8125 5.9375 C-6.02286011 5.84230396 -6.02286011 5.84230396 -9 7 C-8.67 5.68 -8.34 4.36 -8 3 C-6.68 3 -5.36 3 -4 3 C-3.67 2.34 -3.34 1.68 -3 1 C-1 0 -1 0 0 0 Z " fill="#5B6074" transform="translate(233,218)"/>
<path d="M0 0 C3.85645121 -0.22036864 6.49223216 0.39644899 10 2 C9.01 2.33 8.02 2.66 7 3 C7.33 3.99 7.66 4.98 8 6 C2.33846154 4.52307692 2.33846154 4.52307692 0.625 1.875 C0.41875 1.25625 0.2125 0.6375 0 0 Z " fill="#14192F" transform="translate(757,353)"/>
<path d="M0 0 C0 1.65 0 3.3 0 5 C-0.721875 4.67 -1.44375 4.34 -2.1875 4 C-5.01697427 2.99396471 -7.02895466 2.83022598 -10 3 C-10.33 2.34 -10.66 1.68 -11 1 C-3.57142857 -1.42857143 -3.57142857 -1.42857143 0 0 Z " fill="#E6E9EE" transform="translate(1157,293)"/>
<path d="M0 0 C1.65 0 3.3 0 5 0 C5 1.32 5 2.64 5 4 C4.01 4 3.02 4 2 4 C2 5.65 2 7.3 2 9 C0.68 8.67 -0.64 8.34 -2 8 C-1.34 7.34 -0.68 6.68 0 6 C0.16681109 2.91652174 0.16681109 2.91652174 0 0 Z " fill="#252639" transform="translate(1735,223)"/>
<path d="M0 0 C1.32 0.33 2.64 0.66 4 1 C4 3.31 4 5.62 4 8 C3.01 8.33 2.02 8.66 1 9 C0.67 6.03 0.34 3.06 0 0 Z " fill="#0B0E22" transform="translate(1744,217)"/>
<path d="M0 0 C6.52307692 0.61538462 6.52307692 0.61538462 8.9375 2.5625 C9.288125 3.036875 9.63875 3.51125 10 4 C9.67 4.66 9.34 5.32 9 6 C5.89448334 6 4.64738916 5.4606285 2 4 C2.66 3.01 3.32 2.02 4 1 C2.68 0.67 1.36 0.34 0 0 Z " fill="#333746" transform="translate(1749,210)"/>
<path d="M0 0 C2.31 0.33 4.62 0.66 7 1 C7 1.99 7 2.98 7 4 C3.535 5.485 3.535 5.485 0 7 C-1.125 2.25 -1.125 2.25 0 0 Z " fill="#EEF0EF" transform="translate(161,147)"/>
<path d="M0 0 C0.99 0.33 1.98 0.66 3 1 C3 1.66 3 2.32 3 3 C3.99 3.33 4.98 3.66 6 4 C2.91190305 5.76462683 1.76687864 6 -2 6 C-1.125 1.125 -1.125 1.125 0 0 Z " fill="#0B1127" transform="translate(1150,360)"/>
<path d="M0 0 C1.48199902 0.44909061 2.96055236 0.90956564 4.4375 1.375 C5.26121094 1.63023437 6.08492187 1.88546875 6.93359375 2.1484375 C9 3 9 3 10 5 C7.5332355 5.88336837 6.36140628 6.1312406 3.859375 5.22265625 C3.16328125 4.83980469 2.4671875 4.45695312 1.75 4.0625 C1.04359375 3.68222656 0.3371875 3.30195313 -0.390625 2.91015625 C-0.92171875 2.60980469 -1.4528125 2.30945313 -2 2 C-1.34 1.34 -0.68 0.68 0 0 Z " fill="#E3E5E8" transform="translate(1004,313)"/>
<path d="M0 0 C-0.33 0.99 -0.66 1.98 -1 3 C-1.66 3 -2.32 3 -3 3 C-2.67 4.32 -2.34 5.64 -2 7 C-4.64 6.67 -7.28 6.34 -10 6 C-7.35570758 3.077361 -4.105808 0 0 0 Z " fill="#23293A" transform="translate(778,295)"/>
<path d="M0 0 C0.33 0 0.66 0 1 0 C1.33 3.3 1.66 6.6 2 10 C2.99 10.33 3.98 10.66 5 11 C4.67 11.66 4.34 12.32 4 13 C4.99 13.33 5.98 13.66 7 14 C4.125 14.125 4.125 14.125 1 14 C0.34 13.34 -0.32 12.68 -1 12 C-0.34 12 0.32 12 1 12 C0.67 11.01 0.34 10.02 0 9 C-0.06740865 7.43881572 -0.08514456 5.8749748 -0.0625 4.3125 C-0.05347656 3.50425781 -0.04445312 2.69601563 -0.03515625 1.86328125 C-0.02355469 1.24839844 -0.01195312 0.63351563 0 0 Z " fill="#292C3F" transform="translate(164,218)"/>
<path d="M0 0 C0.99 0 1.98 0 3 0 C3.3125 2.3125 3.3125 2.3125 3 5 C0.5 6.8125 0.5 6.8125 -2 8 C-2.125 5.125 -2.125 5.125 -2 2 C-1.34 1.34 -0.68 0.68 0 0 Z " fill="#F5F8FA" transform="translate(168,219)"/>
<path d="M0 0 C0.66 0.33 1.32 0.66 2 1 C2 3.31 2 5.62 2 8 C0.125 7.75 0.125 7.75 -2 7 C-3.25 4.9375 -3.25 4.9375 -4 3 C-2.68 2.01 -1.36 1.02 0 0 Z " fill="#F6F7F8" transform="translate(950,376)"/>
<path d="M0 0 C-1.1446875 0.8971875 -1.1446875 0.8971875 -2.3125 1.8125 C-4.3483575 3.46959332 -6.1978279 5.10297674 -8 7 C-8.99 5.68 -9.98 4.36 -11 3 C-9.73581754 2.30034557 -8.46334598 1.61565237 -7.1875 0.9375 C-6.47980469 0.55464844 -5.77210938 0.17179687 -5.04296875 -0.22265625 C-3 -1 -3 -1 0 0 Z " fill="#E0E0E9" transform="translate(991,355)"/>
<path d="M0 0 C3.27275026 0 5.846632 0.29925156 9 1 C6.14693203 3.32472205 3.45925163 4.7508258 0 6 C0 4 0 2 0 0 Z " fill="#13142C" transform="translate(977,354)"/>
<path d="M0 0 C0 0.99 0 1.98 0 3 C-1.32 3.33 -2.64 3.66 -4 4 C-4 5.32 -4 6.64 -4 8 C-5.98 7.34 -7.96 6.68 -10 6 C-6.87567603 3.47650757 -3.61939504 1.72743854 0 0 Z " fill="#E5E6EE" transform="translate(1007,344)"/>
<path d="M0 0 C0.66 0.33 1.32 0.66 2 1 C2 1.33 2 1.66 2 2 C3.65 2.33 5.3 2.66 7 3 C7 3.33 7 3.66 7 4 C-2.41002278 5.14806378 -2.41002278 5.14806378 -7 5 C-4.702779 3.25728062 -2.40133271 1.60088848 0 0 Z " fill="#181B32" transform="translate(741,314)"/>
<path d="M0 0 C0 0.99 0 1.98 0 3 C-0.61875 3.268125 -1.2375 3.53625 -1.875 3.8125 C-4.2995233 4.95556848 -4.2995233 4.95556848 -6 8 C-6 5.36 -6 2.72 -6 0 C-3.50907189 -1.24546405 -2.58919267 -0.7767578 0 0 Z " fill="#14182B" transform="translate(1216,292)"/>
<path d="M0 0 C0.33 0 0.66 0 1 0 C1.33 1.65 1.66 3.3 2 5 C2.99 4.67 3.98 4.34 5 4 C4.67 5.32 4.34 6.64 4 8 C2.02 8.33 0.04 8.66 -2 9 C-1.67 8.01 -1.34 7.02 -1 6 C-1.99 5.67 -2.98 5.34 -4 5 C-3.01 4.67 -2.02 4.34 -1 4 C-0.26676204 1.98491642 -0.26676204 1.98491642 0 0 Z " fill="#39394F" transform="translate(215,223)"/>
<path d="M0 0 C0.33 0 0.66 0 1 0 C1.33 2.64 1.66 5.28 2 8 C2.66 8 3.32 8 4 8 C4.33 9.98 4.66 11.96 5 14 C1.125 12.125 1.125 12.125 0 11 C-0.07226502 9.14712498 -0.0838122 7.29166122 -0.0625 5.4375 C-0.05347656 4.42558594 -0.04445312 3.41367188 -0.03515625 2.37109375 C-0.02355469 1.58863281 -0.01195312 0.80617187 0 0 Z " fill="#1E2138" transform="translate(160,216)"/>
<path d="M0 0 C0.66 0.33 1.32 0.66 2 1 C1.67 3.97 1.34 6.94 1 10 C0.01 10 -0.98 10 -2 10 C-2.1953125 3.9453125 -2.1953125 3.9453125 -2 2 C-1.34 1.34 -0.68 0.68 0 0 Z " fill="#F1F3F6" transform="translate(1677,216)"/>
<path d="M0 0 C0.33 0.66 0.66 1.32 1 2 C1.66 2.33 2.32 2.66 3 3 C3 5.64 3 8.28 3 11 C2.01 11.33 1.02 11.66 0 12 C0 8.04 0 4.08 0 0 Z " fill="#C8CAD0" transform="translate(237,211)"/>
<path d="M0 0 C1.65 0 3.3 0 5 0 C4.38461538 5.53846154 4.38461538 5.53846154 2.4375 7.875 C1.7259375 8.431875 1.7259375 8.431875 1 9 C1 7.02 1 5.04 1 3 C0.34 3 -0.32 3 -1 3 C-0.67 2.01 -0.34 1.02 0 0 Z " fill="#DDE3E9" transform="translate(1697,215)"/>
<path d="M0 0 C0.33 0 0.66 0 1 0 C1.04125 0.928125 1.0825 1.85625 1.125 2.8125 C1.68859031 6.28947638 1.68859031 6.28947638 5.0625 7.875 C6.031875 8.24625 7.00125 8.6175 8 9 C8 9.66 8 10.32 8 11 C6.68 11.33 5.36 11.66 4 12 C1.02449969 8.9315153 0.03525487 7.53763669 -0.25 3.1875 C-0.1675 2.135625 -0.085 1.08375 0 0 Z " fill="#21223B" transform="translate(160,156)"/>
<path d="M0 0 C3.3 1.65 6.6 3.3 10 5 C9.67 5.66 9.34 6.32 9 7 C6.4375 7.625 6.4375 7.625 4 8 C4.33 6.68 4.66 5.36 5 4 C2.525 3.01 2.525 3.01 0 2 C0 1.34 0 0.68 0 0 Z " fill="#E8ECF3" transform="translate(736,344)"/>
<path d="M0 0 C2.31 0 4.62 0 7 0 C6.67 1.32 6.34 2.64 6 4 C4.02 4.33 2.04 4.66 0 5 C-0.33 4.01 -0.66 3.02 -1 2 C-0.67 1.34 -0.34 0.68 0 0 Z " fill="#EBEFEF" transform="translate(1209,288)"/>
<path d="M0 0 C1.65 0 3.3 0 5 0 C4.67 1.65 4.34 3.3 4 5 C2.35 4.67 0.7 4.34 -1 4 C-0.67 2.68 -0.34 1.36 0 0 Z " fill="#282935" transform="translate(1714,227)"/>
<path d="M0 0 C0.99 1.32 1.98 2.64 3 4 C3.66 3.34 4.32 2.68 5 2 C5.1953125 8.0546875 5.1953125 8.0546875 5 10 C4.34 10.66 3.68 11.32 3 12 C3 10.68 3 9.36 3 8 C2.01 7.67 1.02 7.34 0 7 C0 4.69 0 2.38 0 0 Z " fill="#292C40" transform="translate(172,216)"/>
<path d="M0 0 C0.598125 0.61875 1.19625 1.2375 1.8125 1.875 C4.00811144 4.13676954 4.00811144 4.13676954 7 6 C4.75 6.6875 4.75 6.6875 2 7 C-0.3125 5.75 -0.3125 5.75 -2 4 C-2 3.01 -2 2.02 -2 1 C-1.34 0.67 -0.68 0.34 0 0 Z " fill="#E7E9E9" transform="translate(1689,213)"/>
<path d="M0 0 C1.98 0.495 1.98 0.495 4 1 C3.67 2.65 3.34 4.3 3 6 C1.68 5.67 0.36 5.34 -1 5 C-0.67 3.35 -0.34 1.7 0 0 Z " fill="#222234" transform="translate(196,226)"/>
<path d="M0 0 C1.65 0.33 3.3 0.66 5 1 C4.67 2.32 4.34 3.64 4 5 C2.35 4.67 0.7 4.34 -1 4 C-0.67 2.68 -0.34 1.36 0 0 Z " fill="#20222F" transform="translate(1714,218)"/>
<path d="M0 0 C1.65 0 3.3 0 5 0 C4.01 2.31 3.02 4.62 2 7 C1.67 5.68 1.34 4.36 1 3 C-2.63 3 -6.26 3 -10 3 C-10 2.67 -10 2.34 -10 2 C-6.7 1.67 -3.4 1.34 0 1 C0 0.67 0 0.34 0 0 Z " fill="#DDE1E4" transform="translate(218,208)"/>
<path d="M0 0 C3.465 1.485 3.465 1.485 7 3 C6.67 3.99 6.34 4.98 6 6 C3.5625 5.625 3.5625 5.625 1 5 C0.67 4.34 0.34 3.68 0 3 C-0.99 3.495 -0.99 3.495 -2 4 C-1.34 2.68 -0.68 1.36 0 0 Z " fill="#E9EDF0" transform="translate(762,358)"/>
<path d="M0 0 C1.32 0.66 2.64 1.32 4 2 C4.33 1.34 4.66 0.68 5 0 C6.66666667 1.66666667 8.33333333 3.33333333 10 5 C8.4375 5.75 8.4375 5.75 6 6 C3.49713591 4.86915563 1.32992278 3.47860484 -1 2 C-0.67 1.34 -0.34 0.68 0 0 Z " fill="#DFE4E8" transform="translate(987,304)"/>
<path d="M0 0 C0.33 0 0.66 0 1 0 C1 1.98 1 3.96 1 6 C-4.75 5.25 -4.75 5.25 -7 3 C-5.5459375 2.5359375 -5.5459375 2.5359375 -4.0625 2.0625 C-1.15934208 1.30476658 -1.15934208 1.30476658 0 0 Z " fill="#72778B" transform="translate(1732,218)"/>
<path d="M0 0 C2.31 0 4.62 0 7 0 C7 1.65 7 3.3 7 5 C4.69 4.34 2.38 3.68 0 3 C0 2.01 0 1.02 0 0 Z " fill="#D8DBE8" transform="translate(212,215)"/>
<path d="M0 0 C0.33 0.99 0.66 1.98 1 3 C0.67 3.66 0.34 4.32 0 5 C-2.5625 5.625 -2.5625 5.625 -5 6 C-5 5.34 -5 4.68 -5 4 C-5.66 3.67 -6.32 3.34 -7 3 C-2.25 0 -2.25 0 0 0 Z " fill="#E6E7EC" transform="translate(975,362)"/>
<path d="M0 0 C0.33 0 0.66 0 1 0 C1 2.97 1 5.94 1 9 C-0.65 9.33 -2.3 9.66 -4 10 C-3.34 9.67 -2.68 9.34 -2 9 C-2.04125 8.071875 -2.0825 7.14375 -2.125 6.1875 C-2 3 -2 3 0 0 Z " fill="#0F122A" transform="translate(718,360)"/>
<path d="M0 0 C1.32 0.66 2.64 1.32 4 2 C4 1.67 4 1.34 4 1 C5.65 1 7.3 1 9 1 C9 1.99 9 2.98 9 4 C5.7 4 2.4 4 -1 4 C-0.67 2.68 -0.34 1.36 0 0 Z " fill="#04041B" transform="translate(1698,227)"/>
<path d="M0 0 C1.98 0.99 1.98 0.99 4 2 C4 3.65 4 5.3 4 7 C2.68 7 1.36 7 0 7 C0 4.69 0 2.38 0 0 Z " fill="#151A26" transform="translate(233,225)"/>
<path d="M0 0 C2.0625 0.4375 2.0625 0.4375 4 1 C3.67 2.32 3.34 3.64 3 5 C1.35 5 -0.3 5 -2 5 C-1.125 1.125 -1.125 1.125 0 0 Z " fill="#0E1028" transform="translate(1725,222)"/>
<path d="M0 0 C2.64 0.33 5.28 0.66 8 1 C8 1.66 8 2.32 8 3 C6.35 3 4.7 3 3 3 C3 3.66 3 4.32 3 5 C4.32 5.33 5.64 5.66 7 6 C5.35 6.33 3.7 6.66 2 7 C1.34 4.69 0.68 2.38 0 0 Z " fill="#CED1D5" transform="translate(1711,221)"/>
<path d="M0 0 C1.32 0 2.64 0 4 0 C4 1.65 4 3.3 4 5 C2.35 5 0.7 5 -1 5 C-0.67 3.35 -0.34 1.7 0 0 Z " fill="#1B1D2E" transform="translate(196,218)"/>
<path d="M0 0 C0.99 0.33 1.98 0.66 3 1 C2.67 3.64 2.34 6.28 2 9 C1.01 9 0.02 9 -1 9 C-1.09765625 2.84765625 -1.09765625 2.84765625 -1 1 C-0.67 0.67 -0.34 0.34 0 0 Z " fill="#03081D" transform="translate(1672,215)"/>
<path d="M0 0 C1.32 0 2.64 0 4 0 C3.67 0.99 3.34 1.98 3 3 C0.02148438 3.29296875 0.02148438 3.29296875 -2.95703125 3.5859375 C-5.29988142 3.92665391 -5.29988142 3.92665391 -8 6 C-8 4.68 -8 3.36 -8 2 C-5.36 1.67 -2.72 1.34 0 1 C0 0.67 0 0.34 0 0 Z " fill="#D3DADC" transform="translate(169,208)"/>
<path d="M0 0 C0.99 0 1.98 0 3 0 C1.60667426 3.36720387 0.0210714 4.9859524 -3 7 C-3 6.34 -3 5.68 -3 5 C-3.99 4.67 -4.98 4.34 -6 4 C-5.38125 3.71125 -4.7625 3.4225 -4.125 3.125 C-1.86674235 2.06279958 -1.86674235 2.06279958 0 0 Z " fill="#E6E6E7" transform="translate(1688,208)"/>
<path d="M0 0 C1.98 0.66 3.96 1.32 6 2 C5.01 2.495 5.01 2.495 4 3 C3.34786708 5.02463255 3.34786708 5.02463255 3 7 C1.68 6.34 0.36 5.68 -1 5 C-0.67 3.35 -0.34 1.7 0 0 Z " fill="#131630" transform="translate(1445,168)"/>
<path d="M0 0 C0.66 0 1.32 0 2 0 C2 0.99 2 1.98 2 3 C2.99 3.33 3.98 3.66 5 4 C4.01 4 3.02 4 2 4 C2 4.66 2 5.32 2 6 C0.68 6 -0.64 6 -2 6 C-2 5.34 -2 4.68 -2 4 C-2.66 4 -3.32 4 -4 4 C-3 2 -3 2 0 1 C0 0.67 0 0.34 0 0 Z " fill="#F7F9F7" transform="translate(767,362)"/>
<path d="M0 0 C1.98 0 3.96 0 6 0 C6.66 1.32 7.32 2.64 8 4 C7.34 4 6.68 4 6 4 C5.67 4.99 5.34 5.98 5 7 C4.54625 6.21625 4.0925 5.4325 3.625 4.625 C2.11571258 1.96301969 2.11571258 1.96301969 0 0 Z " fill="#DFDFE9" transform="translate(1023,325)"/>
<path d="M0 0 C1.98 0 3.96 0 6 0 C6.66 1.32 7.32 2.64 8 4 C5.36 3.67 2.72 3.34 0 3 C0 2.01 0 1.02 0 0 Z " fill="#090E1F" transform="translate(166,211)"/>
<path d="M0 0 C0.66 0.33 1.32 0.66 2 1 C2 2.98 2 4.96 2 7 C0.02 7.99 0.02 7.99 -2 9 C-1.34 6.03 -0.68 3.06 0 0 Z " fill="#181A2D" transform="translate(218,220)"/>
<path d="M0 0 C0.99 0.33 1.98 0.66 3 1 C2.34 2.65 1.68 4.3 1 6 C-0.32 5.67 -1.64 5.34 -3 5 C-2.625 3.0625 -2.625 3.0625 -2 1 C-1.34 0.67 -0.68 0.34 0 0 Z " fill="#ECEEF1" transform="translate(1188,346)"/>
<path d="M0 0 C5.75 1.75 5.75 1.75 8 4 C6.35 4.66 4.7 5.32 3 6 C0 2.25 0 2.25 0 0 Z " fill="#14182D" transform="translate(1174,308)"/>
<path d="M0 0 C0.99 0.66 1.98 1.32 3 2 C1.71034824 3.37562854 0.37310707 4.70766393 -1 6 C-1.66 6 -2.32 6 -3 6 C-3.33 4.68 -3.66 3.36 -4 2 C-2.68 1.34 -1.36 0.68 0 0 Z " fill="#141332" transform="translate(766,301)"/>
<path d="M0 0 C0 3.10551666 -0.5393715 4.35261084 -2 7 C-4.50357861 6.1654738 -6.66785852 5.20628008 -9 4 C-7.88625 3.71125 -6.7725 3.4225 -5.625 3.125 C-1.99708908 2.30758671 -1.99708908 2.30758671 0 0 Z " fill="#D7D9E3" transform="translate(1758,228)"/>
<path d="M0 0 C1.32 1.65 2.64 3.3 4 5 C3.67 5.66 3.34 6.32 3 7 C1.0625 6.25 1.0625 6.25 -1 5 C-1.75 2.875 -1.75 2.875 -2 1 C-1.34 0.67 -0.68 0.34 0 0 Z " fill="#EEF1F6" transform="translate(203,225)"/>
<path d="M0 0 C0.99 0.33 1.98 0.66 3 1 C3 1.99 3 2.98 3 4 C2.21625 4.103125 1.4325 4.20625 0.625 4.3125 C-2.33045181 4.77595022 -2.33045181 4.77595022 -4 8 C-4 6.35 -4 4.7 -4 3 C-3.01 2.67 -2.02 2.34 -1 2 C-0.67 1.34 -0.34 0.68 0 0 Z " fill="#DBDCE3" transform="translate(1741,224)"/>
<path d="M0 0 C1.65 0 3.3 0 5 0 C5.33 1.65 5.66 3.3 6 5 C4.02 4.34 2.04 3.68 0 3 C0 2.01 0 1.02 0 0 Z " fill="#EAECF6" transform="translate(209,222)"/>
<path d="M0 0 C3 3 3 3 3.1875 5.6875 C3.0946875 6.8321875 3.0946875 6.8321875 3 8 C2.01 8.33 1.02 8.66 0 9 C0 6.03 0 3.06 0 0 Z " fill="#03091E" transform="translate(161,216)"/>
<path d="M0 0 C2.31 0.33 4.62 0.66 7 1 C6.01 1.66 5.02 2.32 4 3 C3.67 3.99 3.34 4.98 3 6 C2.01 5.67 1.02 5.34 0 5 C0 3.35 0 1.7 0 0 Z " fill="#DBDEE3" transform="translate(192,216)"/>
<path d="M0 0 C2.625 -0.1875 2.625 -0.1875 5 0 C5 1.32 5 2.64 5 4 C4 4 3 4 2 4 C1.01 4.33 0.02 4.66 -1 5 C-1.33 4.34 -1.66 3.68 -2 3 C-1.34 2.01 -0.68 1.02 0 0 Z " fill="#1B1B32" transform="translate(1732,211)"/>
<path d="M0 0 C0.66 0.33 1.32 0.66 2 1 C0.02 1.99 0.02 1.99 -2 3 C-1.67 4.32 -1.34 5.64 -1 7 C-2.98 6.34 -4.96 5.68 -7 5 C-4.702779 3.25728062 -2.40133271 1.60088848 0 0 Z " fill="#D6DAE3" transform="translate(1176,352)"/>
<path d="M0 0 C0.33 0.66 0.66 1.32 1 2 C2.98 1.34 4.96 0.68 7 0 C7.33 0.66 7.66 1.32 8 2 C5.24075815 3.80411967 4.11027897 4.0127245 0.75 3.625 C-0.1575 3.41875 -1.065 3.2125 -2 3 C-1.34 2.01 -0.68 1.02 0 0 Z " fill="#F0F1F6" transform="translate(765,296)"/>
<path d="M0 0 C0 3 0 3 -1.1875 4.6875 C-3.55741722 6.40364695 -5.14025666 6.23187108 -8 6 C-8.33 5.34 -8.66 4.68 -9 4 C-7.88625 3.71125 -6.7725 3.4225 -5.625 3.125 C-1.99708908 2.30758671 -1.99708908 2.30758671 0 0 Z " fill="#D9DCE6" transform="translate(175,228)"/>
<path d="M0 0 C0.33 0 0.66 0 1 0 C1.05399736 1.45792884 1.09279177 2.91642712 1.125 4.375 C1.14820313 5.18710938 1.17140625 5.99921875 1.1953125 6.8359375 C1 9 1 9 -1 11 C-3.125 10.625 -3.125 10.625 -5 10 C-4.360625 9.649375 -3.72125 9.29875 -3.0625 8.9375 C-0.17836168 6.22815794 -0.2899178 3.84141089 0 0 Z " fill="#C1C7D0" transform="translate(171,217)"/>
<path d="M0 0 C0.33 0 0.66 0 1 0 C1.28571429 7.42857143 1.28571429 7.42857143 -1 11 C-2.23076923 4.6 -2.23076923 4.6 -1.0625 1.5625 C-0.711875 1.046875 -0.36125 0.53125 0 0 Z " fill="#2F3142" transform="translate(1686,217)"/>
<path d="M0 0 C0.33 0.66 0.66 1.32 1 2 C1.99 2.33 2.98 2.66 4 3 C2.6875 4.5 2.6875 4.5 1 6 C0.01 6 -0.98 6 -2 6 C-1.125 1.125 -1.125 1.125 0 0 Z " fill="#202339" transform="translate(1729,215)"/>
<path d="M0 0 C-0.99 0.495 -0.99 0.495 -2 1 C-2.33 1.99 -2.66 2.98 -3 4 C-4.65 4.33 -6.3 4.66 -8 5 C-8.33 4.34 -8.66 3.68 -9 3 C-6.38997624 -0.48003168 -4.1689578 -0.27793052 0 0 Z " fill="#E6E5E7" transform="translate(181,208)"/>
<path d="M0 0 C0.66 0.33 1.32 0.66 2 1 C0.68 2.32 -0.64 3.64 -2 5 C-1.67 5.66 -1.34 6.32 -1 7 C-1.99 6.67 -2.98 6.34 -4 6 C-4 5.34 -4 4.68 -4 4 C-4.66 3.67 -5.32 3.34 -6 3 C-4.03533587 1.93224776 -2.03144641 0.93446535 0 0 Z " fill="#DEE2E9" transform="translate(949,375)"/>
<path d="M0 0 C0.66 0.99 1.32 1.98 2 3 C1.34 4.32 0.68 5.64 0 7 C-1.32 6.67 -2.64 6.34 -4 6 C-2.68 4.02 -1.36 2.04 0 0 Z " fill="#1A1E32" transform="translate(230,214)"/>
<path d="M0 0 C0.99 0.33 1.98 0.66 3 1 C3 1.66 3 2.32 3 3 C0.5 4.625 0.5 4.625 -2 6 C-2.33 5.01 -2.66 4.02 -3 3 C-2.01 2.01 -1.02 1.02 0 0 Z " fill="#ECECF0" transform="translate(1694,208)"/>
<path d="M0 0 C2.64 0 5.28 0 8 0 C8.33 0.66 8.66 1.32 9 2 C5.7 2.33 2.4 2.66 -1 3 C-0.67 2.01 -0.34 1.02 0 0 Z " fill="#F3F9F5" transform="translate(161,208)"/>
<path d="M0 0 C1.32 0.33 2.64 0.66 4 1 C4 1.99 4 2.98 4 4 C0.77208445 6.1519437 -0.28400809 6.20086443 -4 6 C-3.34 5.566875 -2.68 5.13375 -2 4.6875 C-1.01 3.8521875 -1.01 3.8521875 0 3 C0 2.01 0 1.02 0 0 Z " fill="#F7F4F3" transform="translate(1180,352)"/>
<path d="M0 0 C1.98 0.66 3.96 1.32 6 2 C2.25 5 2.25 5 0 5 C0 3.35 0 1.7 0 0 Z " fill="#ECE9F1" transform="translate(720,336)"/>
<path d="M0 0 C1.65 0.33 3.3 0.66 5 1 C2.6875 3.0625 2.6875 3.0625 0 5 C-0.99 4.67 -1.98 4.34 -3 4 C-2.34 3.67 -1.68 3.34 -1 3 C-0.67 2.01 -0.34 1.02 0 0 Z " fill="#1A1D36" transform="translate(1020,333)"/>
<path d="M0 0 C0.99 0.33 1.98 0.66 3 1 C2.67 2.65 2.34 4.3 2 6 C1.01 6 0.02 6 -1 6 C-0.67 4.02 -0.34 2.04 0 0 Z " fill="#F2F3F3" transform="translate(1029,330)"/>
<path d="M0 0 C0 0.66 0 1.32 0 2 C-2.91482778 2.80967438 -4.46113217 3.21845993 -7.3125 2.0625 C-7.869375 1.711875 -8.42625 1.36125 -9 1 C-5.8035914 -0.06546953 -3.34252724 -0.07427838 0 0 Z " fill="#080A1C" transform="translate(218,211)"/>
<path d="M0 0 C0.99 0 1.98 0 3 0 C3 2.31 3 4.62 3 7 C2.01 6.67 1.02 6.34 0 6 C-0.38218767 4.34385343 -0.71395102 2.67542976 -1 1 C-0.67 0.67 -0.34 0.34 0 0 Z " fill="#E8EAEC" transform="translate(1458,169)"/>
<path d="M0 0 C1.32 1.65 2.64 3.3 4 5 C3.67 5.66 3.34 6.32 3 7 C0 6 0 6 -1.1875 3.9375 C-1.5896875 2.9784375 -1.5896875 2.9784375 -2 2 C-1.34 1.34 -0.68 0.68 0 0 Z " fill="#11132F" transform="translate(1445,144)"/>
<path d="M0 0 C0.99 0.33 1.98 0.66 3 1 C2.01 2.485 2.01 2.485 1 4 C-2.125 4.1875 -2.125 4.1875 -5 4 C-3.36587557 2.29159719 -2.13093906 1.06546953 0 0 Z " fill="#D3D7E2" transform="translate(956,371)"/>
<path d="M0 0 C0.66 1.32 1.32 2.64 2 4 C0.35 4.33 -1.3 4.66 -3 5 C-3.33 3.68 -3.66 2.36 -4 1 C-3.67 1.66 -3.34 2.32 -3 3 C-2.34 3 -1.68 3 -1 3 C-0.67 2.01 -0.34 1.02 0 0 Z " fill="#13132B" transform="translate(1214,365)"/>
<path d="M0 0 C2 1 2 1 3 3 C2.34 3 1.68 3 1 3 C1 3.66 1 4.32 1 5 C0.01 5.33 -0.98 5.66 -2 6 C-2.33 4.68 -2.66 3.36 -3 2 C-2.01 1.34 -1.02 0.68 0 0 Z " fill="#181B33" transform="translate(728,321)"/>
<path d="M0 0 C2.125 0.9375 2.125 0.9375 4 2 C3.67 2.99 3.34 3.98 3 5 C2.01 4.67 1.02 4.34 0 4 C0 3.34 0 2.68 0 2 C-0.66 1.67 -1.32 1.34 -2 1 C-1.34 0.67 -0.68 0.34 0 0 Z " fill="#171937" transform="translate(732,319)"/>
<path d="M0 0 C1.9375 0.75 1.9375 0.75 4 2 C4.75 4.125 4.75 4.125 5 6 C2.69 5.01 0.38 4.02 -2 3 C-1.34 2.67 -0.68 2.34 0 2 C0 1.34 0 0.68 0 0 Z " fill="#E0E1E8" transform="translate(1191,313)"/>
<path d="M0 0 C1.32 0.33 2.64 0.66 4 1 C1.37801226 3.15377564 -0.64404172 4.40072174 -4 5 C-4 4.34 -4 3.68 -4 3 C-2.68 2.67 -1.36 2.34 0 2 C0 1.34 0 0.68 0 0 Z " fill="#E0E2E6" transform="translate(736,314)"/>
<path d="M0 0 C1.5 1.375 1.5 1.375 3 3 C3 3.66 3 4.32 3 5 C3.66 5.33 4.32 5.66 5 6 C4.01 6.33 3.02 6.66 2 7 C0 5 0 5 -1 2 C-0.67 1.34 -0.34 0.68 0 0 Z " fill="#D2D4DC" transform="translate(1670,226)"/>
<path d="M0 0 C0.66 0.66 1.32 1.32 2 2 C1.625 5.125 1.625 5.125 1 8 C0.34 7.67 -0.32 7.34 -1 7 C-1.04254356 5.00045254 -1.04080783 2.99958364 -1 1 C-0.67 0.67 -0.34 0.34 0 0 Z " fill="#F6F9F2" transform="translate(1665,222)"/>
<path d="M0 0 C1.2065625 0.0309375 1.2065625 0.0309375 2.4375 0.0625 C1.98375 0.64 1.53 1.2175 1.0625 1.8125 C-0.40363516 3.8425333 -1.51107784 5.79789843 -2.5625 8.0625 C-2.94313221 5.7364143 -3.27519945 3.40194736 -3.5625 1.0625 C-2.5625 0.0625 -2.5625 0.0625 0 0 Z " fill="#D7DBE3" transform="translate(196.5625,222.9375)"/>
</svg>
