<?xml version="1.0" encoding="UTF-8"?>
<svg xmlns="http://www.w3.org/2000/svg" xmlns:xlink="http://www.w3.org/1999/xlink" width="40px" height="40px" viewBox="0 0 40 40" version="1.1">
<g id="surface1">
<path style=" stroke:none;fill-rule:nonzero;fill:rgb(89.803922%,92.54902%,96.862745%);fill-opacity:1;" d="M 30.46875 7.8125 C 30.785156 8.09375 31.097656 8.382812 31.40625 8.671875 C 31.457031 8.71875 31.503906 8.761719 31.558594 8.808594 C 32.03125 9.257812 32.417969 9.792969 32.8125 10.3125 C 32.867188 10.382812 32.921875 10.453125 32.980469 10.527344 C 35.027344 13.242188 36.054688 16.59375 36.039062 19.976562 C 36.039062 20.066406 36.039062 20.066406 36.039062 20.160156 C 36.035156 21.140625 35.980469 22.085938 35.78125 23.046875 C 35.769531 23.113281 35.753906 23.179688 35.742188 23.246094 C 34.898438 27.433594 32.355469 31.085938 28.816406 33.445312 C 28.5625 33.605469 28.304688 33.757812 28.046875 33.90625 C 27.992188 33.9375 27.941406 33.96875 27.882812 34 C 24.613281 35.839844 20.652344 36.554688 16.953125 35.78125 C 16.886719 35.769531 16.820312 35.753906 16.753906 35.742188 C 12.5625 34.894531 8.925781 32.355469 6.554688 28.820312 C 6.394531 28.566406 6.242188 28.308594 6.09375 28.046875 C 6.0625 27.988281 6.027344 27.929688 5.992188 27.871094 C 5.152344 26.375 4.558594 24.808594 4.21875 23.125 C 4.207031 23.0625 4.191406 23 4.179688 22.933594 C 3.398438 18.898438 4.320312 14.527344 6.585938 11.113281 C 7.207031 10.210938 7.921875 9.390625 8.671875 8.59375 C 8.71875 8.542969 8.761719 8.496094 8.808594 8.441406 C 9.257812 7.96875 9.792969 7.582031 10.3125 7.1875 C 10.382812 7.132812 10.453125 7.078125 10.527344 7.019531 C 12.691406 5.386719 15.226562 4.472656 17.890625 4.0625 C 17.972656 4.050781 17.972656 4.050781 18.058594 4.035156 C 22.476562 3.441406 27.125 4.894531 30.46875 7.8125 Z M 30.46875 7.8125 "/>
<path style=" stroke:none;fill-rule:nonzero;fill:rgb(0.392157%,0.392157%,0.392157%);fill-opacity:1;" d="M 30.46875 7.8125 C 30.785156 8.09375 31.097656 8.382812 31.40625 8.671875 C 31.457031 8.71875 31.503906 8.761719 31.558594 8.808594 C 32.03125 9.257812 32.417969 9.792969 32.8125 10.3125 C 32.867188 10.382812 32.921875 10.453125 32.980469 10.527344 C 35.027344 13.242188 36.054688 16.59375 36.039062 19.976562 C 36.039062 20.066406 36.039062 20.066406 36.039062 20.160156 C 36.035156 21.140625 35.980469 22.085938 35.78125 23.046875 C 35.769531 23.113281 35.753906 23.179688 35.742188 23.246094 C 34.898438 27.433594 32.355469 31.085938 28.816406 33.445312 C 28.5625 33.605469 28.304688 33.757812 28.046875 33.90625 C 27.992188 33.9375 27.941406 33.96875 27.882812 34 C 24.613281 35.839844 20.652344 36.554688 16.953125 35.78125 C 16.886719 35.769531 16.820312 35.753906 16.753906 35.742188 C 12.5625 34.894531 8.925781 32.355469 6.554688 28.820312 C 6.394531 28.566406 6.242188 28.308594 6.09375 28.046875 C 6.0625 27.988281 6.027344 27.929688 5.992188 27.871094 C 5.152344 26.375 4.558594 24.808594 4.21875 23.125 C 4.207031 23.0625 4.191406 23 4.179688 22.933594 C 3.398438 18.898438 4.320312 14.527344 6.585938 11.113281 C 7.207031 10.210938 7.921875 9.390625 8.671875 8.59375 C 8.71875 8.542969 8.761719 8.496094 8.808594 8.441406 C 9.257812 7.96875 9.792969 7.582031 10.3125 7.1875 C 10.382812 7.132812 10.453125 7.078125 10.527344 7.019531 C 12.691406 5.386719 15.226562 4.472656 17.890625 4.0625 C 17.972656 4.050781 17.972656 4.050781 18.058594 4.035156 C 22.476562 3.441406 27.125 4.894531 30.46875 7.8125 Z M 9.234375 9.964844 C 8.867188 10.375 8.535156 10.808594 8.203125 11.25 C 8.152344 11.316406 8.105469 11.378906 8.054688 11.445312 C 5.898438 14.421875 4.882812 18.246094 5.417969 21.898438 C 5.503906 22.390625 5.59375 22.875 5.703125 23.359375 C 5.722656 23.445312 5.742188 23.535156 5.761719 23.625 C 6.667969 27.425781 9.210938 30.605469 12.496094 32.640625 C 13.640625 33.328125 14.871094 33.835938 16.164062 34.175781 C 16.285156 34.207031 16.40625 34.242188 16.527344 34.277344 C 20.058594 35.285156 24.011719 34.558594 27.1875 32.8125 C 30.644531 30.847656 33.136719 27.617188 34.214844 23.789062 C 35.203125 20.070312 34.707031 16.046875 32.777344 12.707031 C 32.136719 11.644531 31.386719 10.679688 30.546875 9.765625 C 30.488281 9.699219 30.425781 9.632812 30.363281 9.566406 C 29.875 9.054688 29.316406 8.628906 28.75 8.203125 C 28.683594 8.152344 28.621094 8.105469 28.554688 8.054688 C 27.152344 7.039062 25.632812 6.367188 23.984375 5.859375 C 23.90625 5.835938 23.832031 5.8125 23.75 5.785156 C 23.328125 5.664062 22.894531 5.578125 22.460938 5.5 C 22.40625 5.488281 22.355469 5.480469 22.300781 5.46875 C 17.480469 4.636719 12.609375 6.503906 9.234375 9.964844 Z M 9.234375 9.964844 "/>
<path style=" stroke:none;fill-rule:nonzero;fill:rgb(0.784314%,1.176471%,1.176471%);fill-opacity:1;" d="M 26.25 10 C 26.496094 10.136719 26.714844 10.308594 26.9375 10.484375 C 27.003906 10.53125 27.066406 10.582031 27.132812 10.632812 C 27.265625 10.734375 27.402344 10.835938 27.535156 10.9375 C 27.726562 11.089844 27.921875 11.238281 28.117188 11.382812 C 28.578125 11.730469 28.578125 11.730469 28.800781 11.902344 C 28.847656 11.9375 28.890625 11.972656 28.9375 12.007812 C 29.292969 12.296875 29.292969 12.296875 29.332031 12.652344 C 29.320312 12.878906 29.300781 12.964844 29.179688 13.164062 C 28.902344 13.328125 28.667969 13.34375 28.359375 13.28125 C 28.082031 13.132812 27.839844 12.941406 27.59375 12.742188 C 27.527344 12.691406 27.460938 12.640625 27.394531 12.589844 C 27.269531 12.496094 27.148438 12.402344 27.027344 12.304688 C 26.902344 12.207031 26.773438 12.117188 26.640625 12.03125 C 26.640625 12.09375 26.640625 12.160156 26.640625 12.226562 C 26.648438 13.785156 26.652344 15.34375 26.65625 16.902344 C 26.660156 17.65625 26.660156 18.410156 26.664062 19.164062 C 26.667969 19.820312 26.667969 20.480469 26.671875 21.136719 C 26.671875 21.484375 26.671875 21.832031 26.671875 22.179688 C 26.675781 22.507812 26.675781 22.835938 26.675781 23.164062 C 26.675781 23.285156 26.675781 23.40625 26.679688 23.523438 C 26.6875 24.660156 26.46875 25.539062 25.703125 26.40625 C 25.109375 26.992188 24.226562 27.351562 23.394531 27.363281 C 22.429688 27.351562 21.640625 27.011719 20.921875 26.367188 C 20.199219 25.605469 19.960938 24.65625 19.972656 23.632812 C 20.054688 22.78125 20.480469 22.054688 21.105469 21.488281 C 22.03125 20.734375 22.894531 20.605469 24.0625 20.703125 C 24.53125 20.808594 24.90625 21.003906 25.3125 21.25 C 25.3125 21.195312 25.3125 21.140625 25.3125 21.082031 C 25.304688 19.738281 25.300781 18.394531 25.296875 17.054688 C 25.292969 16.402344 25.292969 15.753906 25.289062 15.105469 C 25.285156 14.539062 25.285156 13.972656 25.28125 13.40625 C 25.28125 13.105469 25.28125 12.804688 25.28125 12.507812 C 25.277344 12.222656 25.277344 11.941406 25.277344 11.660156 C 25.277344 11.507812 25.273438 11.355469 25.273438 11.203125 C 25.273438 11.109375 25.273438 11.019531 25.273438 10.925781 C 25.273438 10.847656 25.273438 10.765625 25.273438 10.683594 C 25.324219 10.410156 25.433594 10.277344 25.625 10.078125 C 25.859375 9.960938 25.988281 9.964844 26.25 10 Z M 26.25 10 "/>
<path style=" stroke:none;fill-rule:nonzero;fill:rgb(0.392157%,0.392157%,0.392157%);fill-opacity:1;" d="M 10.910156 17.292969 C 10.960938 17.292969 11.011719 17.292969 11.0625 17.292969 C 11.234375 17.292969 11.40625 17.292969 11.578125 17.292969 C 11.699219 17.292969 11.820312 17.292969 11.945312 17.292969 C 12.277344 17.292969 12.609375 17.292969 12.941406 17.292969 C 13.289062 17.296875 13.636719 17.292969 13.984375 17.292969 C 14.570312 17.292969 15.15625 17.296875 15.738281 17.296875 C 16.414062 17.300781 17.089844 17.300781 17.765625 17.296875 C 18.417969 17.296875 19.066406 17.296875 19.714844 17.300781 C 19.992188 17.300781 20.269531 17.300781 20.546875 17.296875 C 20.871094 17.296875 21.199219 17.300781 21.523438 17.300781 C 21.644531 17.300781 21.761719 17.300781 21.882812 17.300781 C 22.046875 17.300781 22.207031 17.300781 22.371094 17.304688 C 22.464844 17.304688 22.554688 17.304688 22.648438 17.304688 C 22.945312 17.351562 23.074219 17.445312 23.28125 17.65625 C 23.363281 17.925781 23.363281 17.925781 23.359375 18.203125 C 23.195312 18.472656 23.113281 18.570312 22.8125 18.671875 C 22.648438 18.679688 22.480469 18.683594 22.316406 18.683594 C 22.265625 18.683594 22.214844 18.683594 22.160156 18.6875 C 21.992188 18.6875 21.820312 18.6875 21.652344 18.6875 C 21.53125 18.6875 21.410156 18.691406 21.285156 18.691406 C 20.886719 18.691406 20.484375 18.695312 20.085938 18.695312 C 20.019531 18.695312 19.949219 18.695312 19.878906 18.695312 C 19.238281 18.699219 18.597656 18.703125 17.953125 18.703125 C 17.132812 18.703125 16.3125 18.707031 15.492188 18.714844 C 14.914062 18.714844 14.335938 18.71875 13.757812 18.71875 C 13.414062 18.71875 13.070312 18.722656 12.726562 18.722656 C 12.402344 18.726562 12.078125 18.726562 11.753906 18.726562 C 11.632812 18.726562 11.515625 18.726562 11.394531 18.730469 C 10.5 18.742188 10.5 18.742188 10.234375 18.574219 C 10.066406 18.382812 10 18.210938 9.953125 17.964844 C 10.0625 17.441406 10.414062 17.292969 10.910156 17.292969 Z M 10.910156 17.292969 "/>
<path style=" stroke:none;fill-rule:nonzero;fill:rgb(1.568628%,1.568628%,1.568628%);fill-opacity:1;" d="M 10.914062 13.308594 C 10.988281 13.308594 10.988281 13.308594 11.066406 13.308594 C 11.238281 13.304688 11.410156 13.304688 11.582031 13.308594 C 11.707031 13.308594 11.832031 13.304688 11.953125 13.304688 C 12.289062 13.304688 12.621094 13.304688 12.957031 13.304688 C 13.238281 13.304688 13.515625 13.304688 13.796875 13.304688 C 14.453125 13.300781 15.113281 13.300781 15.773438 13.304688 C 16.453125 13.304688 17.132812 13.304688 17.8125 13.300781 C 18.394531 13.300781 18.980469 13.296875 19.5625 13.300781 C 19.914062 13.300781 20.261719 13.300781 20.609375 13.296875 C 20.9375 13.296875 21.265625 13.296875 21.59375 13.300781 C 21.714844 13.300781 21.832031 13.300781 21.953125 13.296875 C 22.859375 13.289062 22.859375 13.289062 23.128906 13.460938 C 23.28125 13.636719 23.351562 13.804688 23.410156 14.027344 C 23.335938 14.304688 23.179688 14.425781 22.96875 14.609375 C 22.75 14.71875 22.570312 14.699219 22.328125 14.699219 C 22.253906 14.699219 22.253906 14.699219 22.175781 14.699219 C 22.007812 14.699219 21.835938 14.699219 21.667969 14.703125 C 21.546875 14.703125 21.425781 14.703125 21.304688 14.703125 C 20.976562 14.703125 20.644531 14.703125 20.316406 14.707031 C 20.109375 14.707031 19.90625 14.707031 19.699219 14.707031 C 19.058594 14.707031 18.414062 14.710938 17.769531 14.710938 C 17.027344 14.710938 16.285156 14.714844 15.542969 14.714844 C 14.96875 14.71875 14.394531 14.71875 13.820312 14.71875 C 13.476562 14.71875 13.132812 14.722656 12.792969 14.722656 C 12.46875 14.726562 12.144531 14.726562 11.824219 14.722656 C 11.707031 14.722656 11.585938 14.726562 11.46875 14.726562 C 11.304688 14.726562 11.144531 14.726562 10.984375 14.726562 C 10.894531 14.726562 10.800781 14.726562 10.710938 14.726562 C 10.417969 14.679688 10.289062 14.578125 10.078125 14.375 C 9.964844 14.148438 9.96875 14 10 13.75 C 10.28125 13.394531 10.460938 13.308594 10.914062 13.308594 Z M 10.914062 13.308594 "/>
<path style=" stroke:none;fill-rule:nonzero;fill:rgb(31.764707%,75.294119%,56.470591%);fill-opacity:1;" d="M 24.457031 22.300781 C 24.910156 22.664062 25.269531 23.113281 25.347656 23.699219 C 25.347656 24.453125 25.253906 24.894531 24.75 25.449219 C 24.332031 25.835938 23.898438 26.027344 23.324219 26.058594 C 22.703125 26.03125 22.222656 25.777344 21.800781 25.328125 C 21.410156 24.832031 21.277344 24.363281 21.296875 23.734375 C 21.378906 23.171875 21.667969 22.699219 22.121094 22.359375 C 22.828125 21.910156 23.738281 21.832031 24.457031 22.300781 Z M 24.457031 22.300781 "/>
<path style=" stroke:none;fill-rule:nonzero;fill:rgb(0.392157%,0.392157%,0.392157%);fill-opacity:1;" d="M 11.203125 21.28125 C 11.285156 21.28125 11.367188 21.277344 11.449219 21.277344 C 11.722656 21.277344 11.992188 21.28125 12.261719 21.28125 C 12.449219 21.28125 12.636719 21.28125 12.824219 21.28125 C 13.21875 21.28125 13.609375 21.285156 14.003906 21.285156 C 14.507812 21.289062 15.011719 21.289062 15.515625 21.289062 C 15.902344 21.289062 16.289062 21.289062 16.679688 21.289062 C 16.863281 21.292969 17.050781 21.292969 17.234375 21.292969 C 17.496094 21.292969 17.753906 21.292969 18.015625 21.296875 C 18.09375 21.296875 18.167969 21.292969 18.25 21.292969 C 18.632812 21.300781 18.910156 21.304688 19.21875 21.5625 C 19.339844 21.808594 19.324219 21.996094 19.296875 22.265625 C 19.140625 22.492188 19.011719 22.632812 18.734375 22.691406 C 18.519531 22.707031 18.304688 22.707031 18.085938 22.707031 C 17.960938 22.707031 17.960938 22.707031 17.835938 22.707031 C 17.5625 22.707031 17.289062 22.707031 17.015625 22.707031 C 16.828125 22.707031 16.636719 22.707031 16.449219 22.707031 C 16.050781 22.707031 15.652344 22.703125 15.253906 22.703125 C 14.746094 22.699219 14.238281 22.699219 13.726562 22.703125 C 13.335938 22.703125 12.945312 22.703125 12.550781 22.699219 C 12.363281 22.699219 12.175781 22.699219 11.988281 22.703125 C 11.726562 22.703125 11.464844 22.699219 11.203125 22.699219 C 11.085938 22.699219 11.085938 22.699219 10.964844 22.699219 C 10.4375 22.691406 10.4375 22.691406 10.1875 22.507812 C 10 22.226562 9.960938 22.058594 10 21.71875 C 10.332031 21.246094 10.671875 21.273438 11.203125 21.28125 Z M 11.203125 21.28125 "/>
<path style=" stroke:none;fill-rule:nonzero;fill:rgb(1.568628%,1.568628%,1.568628%);fill-opacity:1;" d="M 11.128906 25.300781 C 11.195312 25.300781 11.261719 25.300781 11.332031 25.300781 C 11.558594 25.300781 11.785156 25.300781 12.011719 25.300781 C 12.167969 25.300781 12.324219 25.300781 12.480469 25.296875 C 12.808594 25.296875 13.136719 25.296875 13.46875 25.296875 C 13.890625 25.296875 14.3125 25.296875 14.730469 25.296875 C 15.054688 25.292969 15.378906 25.292969 15.703125 25.292969 C 15.859375 25.292969 16.015625 25.292969 16.167969 25.292969 C 16.386719 25.292969 16.605469 25.292969 16.820312 25.292969 C 16.917969 25.292969 16.917969 25.292969 17.015625 25.292969 C 17.578125 25.296875 17.578125 25.296875 17.8125 25.46875 C 18.007812 25.761719 18.011719 25.902344 17.96875 26.25 C 17.8125 26.460938 17.691406 26.613281 17.429688 26.675781 C 17.242188 26.691406 17.0625 26.691406 16.878906 26.6875 C 16.808594 26.6875 16.738281 26.691406 16.667969 26.691406 C 16.4375 26.691406 16.207031 26.6875 15.980469 26.6875 C 15.820312 26.6875 15.660156 26.6875 15.5 26.6875 C 15.164062 26.6875 14.828125 26.683594 14.496094 26.683594 C 14.066406 26.679688 13.636719 26.679688 13.207031 26.679688 C 12.878906 26.679688 12.546875 26.679688 12.21875 26.679688 C 12.058594 26.675781 11.902344 26.675781 11.742188 26.675781 C 11.523438 26.675781 11.300781 26.675781 11.078125 26.671875 C 11.015625 26.671875 10.949219 26.675781 10.882812 26.675781 C 10.617188 26.671875 10.425781 26.660156 10.195312 26.53125 C 10.019531 26.34375 10.007812 26.1875 9.984375 25.9375 C 10.007812 25.683594 10.132812 25.558594 10.3125 25.390625 C 10.566406 25.261719 10.847656 25.300781 11.128906 25.300781 Z M 11.128906 25.300781 "/>
</g>
</svg>
